<?xml version="1.0" encoding="UTF-8"?>
<svg width="26px" height="26px" viewBox="0 0 26 26" version="1.1" xmlns="http://www.w3.org/2000/svg" xmlns:xlink="http://www.w3.org/1999/xlink">
    <!-- Generator: Sketch 52.5 (67469) - http://www.bohemiancoding.com/sketch -->
    <title>1010</title>
    <desc>Created with Sketch.</desc>
    <g id="Page-1" stroke="none" stroke-width="1" fill="none" fill-rule="evenodd">
        <g id="名师空间-" transform="translate(-239.000000, -1482.000000)" fill="#3DBDB6" fill-rule="nonzero">
            <g id="Shape-0003" transform="translate(239.000000, 1482.000000)">
                <path d="M22.12,5.30769231 L19.84,5.30769231 L19.84,3.76923077 C19.84,3.34439904 19.4997338,3 19.08,3 L4.64,3 C3.8005325,3 3.12,3.68879808 3.12,4.53846154 L3.12,21.4615385 C3.12,22.311226 3.8005325,23 4.64,23 L22.12,23 C22.5397338,23 22.88,22.655601 22.88,22.2307692 L22.88,6.07692308 C22.88,5.65209135 22.5397338,5.30769231 22.12,5.30769231 Z M3.94333333,4.66666667 C3.94333333,4.20643229 4.28430847,3.83333333 4.70491667,3.83333333 L18.7942083,3.83333333 C19.0045243,3.83333333 19.175,4.01989583 19.175,4.25 L19.175,5.5 L4.70491667,5.5 C4.28430847,5.5 3.94333333,5.12690104 3.94333333,4.66666667 Z M12.6112037,19.25 L6.39046296,19.25 C6.17575021,19.25 6.00166667,19.0634635 6.00166667,18.8333333 C6.00166667,18.6032031 6.17575021,18.4166667 6.39046296,18.4166667 L12.6112037,18.4166667 C12.8259165,18.4166667 13,18.6032031 13,18.8333333 C13,19.0634635 12.8259165,19.25 12.6112037,19.25 Z M15.5016667,15.9166667 L6.38166667,15.9166667 C6.17181167,15.9166667 6.00166667,15.7301302 6.00166667,15.5 C6.00166667,15.2698698 6.17181167,15.0833333 6.38166667,15.0833333 L15.5016667,15.0833333 C15.7115454,15.0833333 15.8816667,15.2698698 15.8816667,15.5 C15.8816667,15.7301302 15.7115454,15.9166667 15.5016667,15.9166667 Z M6.00166667,12.5833333 C6.00166667,12.3532292 6.17575021,12.1666667 6.39046296,12.1666667 L12.6112037,12.1666667 C12.8259165,12.1666667 13,12.3532292 13,12.5833333 C13,12.8134375 12.8259165,13 12.6112037,13 L6.39046296,13 C6.17575021,13 6.00166667,12.8134375 6.00166667,12.5833333 Z M19.6209722,10.0833333 L6.79069444,10.0833333 C6.58229677,10.0833333 6.41333333,9.89677083 6.41333333,9.66666667 C6.41333333,9.4365625 6.58229677,9.25 6.79069444,9.25 L19.6209722,9.25 C19.8293935,9.25 19.9983333,9.4365625 19.9983333,9.66666667 C19.9983333,9.89677083 19.8293935,10.0833333 19.6209722,10.0833333 Z" id="Shape"></path>
            </g>
        </g>
    </g>
</svg>