<?xml version="1.0" encoding="UTF-8"?>
<svg width="32px" height="38px" viewBox="0 0 32 38" version="1.1" xmlns="http://www.w3.org/2000/svg" xmlns:xlink="http://www.w3.org/1999/xlink">
    <!-- Generator: Sketch 52.5 (67469) - http://www.bohemiancoding.com/sketch -->
    <title>11</title>
    <desc>Created with Sketch.</desc>
    <g id="Page-1" stroke="none" stroke-width="1" fill="none" fill-rule="evenodd">
        <g id="首页" transform="translate(-171.000000, -1147.000000)" fill="#000000" fill-rule="nonzero">
            <g id="wenhua" transform="translate(171.000000, 1147.000000)">
                <g id="11">
                    <path d="M28.3076923,38 L3.69230769,38 C1.6540602,37.9976223 0.00231032763,36.2976964 0,34.2 L0,3.8 C0.00231032763,1.70230362 1.6540602,0.00237771218 3.69230769,0 L28.3076923,0 C30.3459398,0.00237771218 31.9976897,1.70230362 32,3.8 L32,34.2 C31.9976897,36.2976964 30.3459398,37.9976223 28.3076923,38 Z M3.69230769,2.53333333 C3.01288894,2.53411865 2.46230152,3.10076486 2.46153846,3.8 L2.46153846,34.2 C2.46230152,34.8992351 3.01288894,35.4658814 3.69230769,35.4666667 L28.3076923,35.4666667 C28.9871111,35.4658814 29.5376985,34.8992351 29.5384615,34.2 L29.5384615,3.8 C29.5376985,3.10076486 28.9871111,2.53411865 28.3076923,2.53333333 L3.69230769,2.53333333 Z" id="Shape"></path>
                    <path d="M7.25,38 C6.55964406,38 6,37.432894 6,36.7333333 L6,1.26666667 C6,0.567105984 6.55964406,0 7.25,0 C7.94035594,-1.4062825e-16 8.5,0.567105984 8.5,1.26666667 L8.5,36.7333333 C8.5,37.432894 7.94035594,38 7.25,38 Z M24.7500781,12.6666667 C24.5032728,12.6667145 24.2619813,12.5926952 24.0566406,12.4539458 L21,10.3890021 L17.9433594,12.4539458 C17.5597873,12.7130615 17.0666096,12.7372136 16.6601671,12.5167869 C16.2537246,12.2963601 15.9999983,11.8671382 16,11.4 L16,1.26666667 C16,0.567105984 16.5596441,0 17.25,0 C17.9403559,-1.4062825e-16 18.5,0.567105984 18.5,1.26666667 L18.5,9.03319375 L20.3066406,7.81272083 C20.7265076,7.52908674 21.2734924,7.52908674 21.6933594,7.81272083 L23.5,9.03319375 L23.5,1.26666667 C23.5,0.567105984 24.0596441,0 24.75,0 C25.4403559,-1.4062825e-16 26,0.567105984 26,1.26666667 L26,11.4 C26,12.0995298 25.4404036,12.6666229 24.7500781,12.6666667 Z M24.75,31.6666667 L17.25,31.6666667 C16.5596441,31.6666667 16,31.0995607 16,30.4 C16,29.7004393 16.5596441,29.1333333 17.25,29.1333333 L24.75,29.1333333 C25.4403559,29.1333333 26,29.7004393 26,30.4 C26,31.0995607 25.4403559,31.6666667 24.75,31.6666667 Z" id="Shape"></path>
                </g>
            </g>
        </g>
    </g>
</svg>