<?xml version="1.0" encoding="UTF-8"?>
<svg width="32px" height="38px" viewBox="0 0 32 38" version="1.1" xmlns="http://www.w3.org/2000/svg" xmlns:xlink="http://www.w3.org/1999/xlink">
    <!-- Generator: Sketch 52.5 (67469) - http://www.bohemiancoding.com/sketch -->
    <title>12</title>
    <desc>Created with Sketch.</desc>
    <g id="Page-1" stroke="none" stroke-width="1" fill="none" fill-rule="evenodd">
        <g id="首页" transform="translate(-171.000000, -1220.000000)">
            <g id="Group-7" transform="translate(171.000000, 1220.000000)">
                <g id="12">
                    <rect id="Rectangle" stroke="#000000" stroke-width="2.5" fill-rule="nonzero" x="1.25" y="1.25" width="29.5" height="35.5"></rect>
                    <path d="M11.7447412,26.5007519 L13.5297162,24.7082707 C14.1487479,24.0887218 14.1487479,23.0781955 13.5297162,22.4646617 C12.9106845,21.8451128 11.9010017,21.8451128 11.28798,22.4646617 L9.49699499,24.2571429 L7.70601002,22.4646617 C7.0869783,21.8451128 6.08330551,21.8451128 5.46427379,22.4646617 C4.84524207,23.0842105 4.84524207,24.0947368 5.46427379,24.7082707 L7.25525876,26.5007519 L5.46427379,28.2932331 C4.84524207,28.912782 4.84524207,29.9233083 5.46427379,30.5368421 C5.77679466,30.843609 6.17946578,31 6.58814691,31 C6.99682805,31 7.40550918,30.843609 7.71202003,30.5368421 L9.50300501,28.7443609 L11.28798,30.5368421 C11.6005008,30.843609 12.003172,31 12.4118531,31 C12.8205342,31 13.2292154,30.843609 13.5357262,30.5368421 C14.1547579,29.9172932 14.1547579,28.9067669 13.5357262,28.2932331 L11.7447412,26.5007519 Z" id="Path" fill="#000000"></path>
                    <path d="M13.2477376,10.989323 L10.8665158,10.989323 L10.8665158,8.5374909 C10.8665158,7.68721184 10.199095,7 9.37330317,7 C8.54751131,7 7.8800905,7.68721184 7.8800905,8.5374909 L7.8800905,10.989323 L5.49321267,10.989323 C4.66742081,10.989323 4,11.6765348 4,12.5268139 C4,13.3770929 4.66742081,14.0643048 5.49321267,14.0643048 L7.87443439,14.0643048 L7.87443439,16.5161369 C7.87443439,17.3664159 8.5418552,18.0536278 9.36764706,18.0536278 C10.1934389,18.0536278 10.8608597,17.3664159 10.8608597,16.5161369 L10.8608597,14.0643048 L13.2420814,14.0643048 C14.0678733,14.0643048 14.7352941,13.3770929 14.7352941,12.5268139 C14.7409502,11.6765348 14.0735294,10.989323 13.2477376,10.989323 Z M25.5067873,27.9250182 L17.7579186,27.9250182 C16.9321267,27.9250182 16.2647059,28.61223 16.2647059,29.4625091 C16.2647059,30.3127882 16.9321267,31 17.7579186,31 L25.5067873,31 C26.3325792,31 27,30.3069643 27,29.4625091 C27,28.61223 26.3325792,27.9250182 25.5067873,27.9250182 Z" id="Shape" fill="#000000" fill-rule="nonzero"></path>
                    <path d="M25.4699684,11 L17.5300316,11 C16.6838778,11 16,11.6704545 16,12.5 C16,13.3295455 16.6838778,14 17.5300316,14 L25.4699684,14 C26.3161222,14 27,13.3295455 27,12.5 C27,11.6704545 26.3161222,11 25.4699684,11 Z" id="Path" fill="#000000"></path>
                    <path d="M25.4641465,22.0000354 L17.5242625,22.0392868 C16.6781142,22.0448941 15.994241,22.7065608 16.0000366,23.525233 C16.0058321,24.3439053 16.6897053,25.005572 17.5358535,24.9999646 L25.4757375,24.9607132 C26.3218858,24.9551059 27.005759,24.2934392 26.9999634,23.474767 C26.9999634,22.6560947 26.3102947,21.994428 25.4641465,22.0000354 Z" id="Path" fill="#000000"></path>
                </g>
            </g>
        </g>
    </g>
</svg>