<?xml version="1.0" encoding="UTF-8"?>
<svg width="32px" height="38px" viewBox="0 0 32 38" version="1.1" xmlns="http://www.w3.org/2000/svg" xmlns:xlink="http://www.w3.org/1999/xlink">
    <!-- Generator: Sketch 52.5 (67469) - http://www.bohemiancoding.com/sketch -->
    <title>13</title>
    <desc>Created with Sketch.</desc>
    <g id="Page-1" stroke="none" stroke-width="1" fill="none" fill-rule="evenodd">
        <g id="首页" transform="translate(-171.000000, -1293.000000)">
            <g id="Group-12" transform="translate(171.000000, 1293.000000)">
                <g id="13">
                    <rect id="Rectangle-Copy" stroke="#000000" stroke-width="2.5" fill-rule="nonzero" x="1.25" y="1.25" width="29.5" height="35.5"></rect>
                    <path d="M7.07993405,26.0103622 C6.48597031,26.0103622 6,25.5224736 6,24.9261653 L6,14.0841968 C6,13.4878886 6.48597034,13 7.07993405,13 L12.4796044,13 C13.0735681,13 13.5595384,13.4878886 13.5595384,14.0841968 C13.5595384,14.6805051 13.0735681,15.1683937 12.4796044,15.1683937 L8.15986811,15.1683937 L8.15986811,18.4209843 L11.1296868,18.4209843 C11.7236505,18.4209843 12.2096208,18.9088728 12.2096208,19.5051811 C12.2096208,20.1014893 11.7236505,20.5893779 11.1296868,20.5893779 L8.15986811,20.5893779 L8.15986811,23.8419685 L12.4796044,23.8419685 C13.0735681,23.8419685 13.5595384,24.3298571 13.5595384,24.9261653 C13.5595384,25.5224736 13.0735681,26.0103622 12.4796044,26.0103622 L7.07993405,26.0103622 Z" id="Combined-Shape" fill="#000000"></path>
                    <path d="M25.1794396,26.0103622 C24.8554593,26.0103622 24.5314791,25.8477326 24.3154923,25.5766834 L18.1598681,17.3367874 L18.1598681,24.9261653 C18.1598681,25.5224736 17.6738978,26.0103622 17.0799341,26.0103622 C16.4859704,26.0103622 16,25.5224736 16,24.9261653 L16,14.0841968 C16,13.6234132 16.2969819,13.1897344 16.7289555,13.0542099 C17.1609292,12.9186853 17.6468995,13.0542099 17.9438813,13.4336787 L24.0995055,21.6735748 L24.0995055,14.0841968 C24.0995055,13.4878886 24.5854758,13 25.1794396,13 C25.7734033,13 26.2593736,13.4878886 26.2593736,14.0841968 L26.2593736,24.9261653 C26.2593736,25.386949 25.9623918,25.8206277 25.5304181,25.9561523 C25.3954264,25.9832572 25.287433,26.0103622 25.1794396,26.0103622 Z" id="Path" fill="#000000"></path>
                </g>
            </g>
        </g>
    </g>
</svg>