<?xml version="1.0" encoding="UTF-8"?>
<svg width="32px" height="38px" viewBox="0 0 32 38" version="1.1" xmlns="http://www.w3.org/2000/svg" xmlns:xlink="http://www.w3.org/1999/xlink">
    <!-- Generator: Sketch 52.5 (67469) - http://www.bohemiancoding.com/sketch -->
    <title>14</title>
    <desc>Created with Sketch.</desc>
    <g id="Page-1" stroke="none" stroke-width="1" fill="none" fill-rule="evenodd">
        <g id="首页" transform="translate(-171.000000, -1365.000000)">
            <g id="Group-11" transform="translate(171.000000, 1365.000000)">
                <g id="14">
                    <rect id="Rectangle-Copy-2" stroke="#000000" stroke-width="2.5" fill-rule="nonzero" x="1.25" y="1.25" width="29.5" height="35.5"></rect>
                    <g id="physics-world" transform="translate(3.000000, 7.000000)" fill="#000000">
                        <path d="M11.5,12.5 C11.5,13.3284562 12.1715805,14 13,14 C13.8284562,14 14.5,13.3284195 14.5,12.5 C14.5,11.6715438 13.8284195,11 13,11 C12.1715438,11 11.5,11.6715805 11.5,12.5 Z" id="Path"></path>
                        <path d="M25.5,12.5000278 C25.5,11.1387748 23.8474982,9.92002204 21.2381064,9.08815908 C22.4931078,6.65501479 22.8012192,4.62439917 21.839357,3.66125814 C20.875606,2.698756 18.8456037,3.00686779 16.411851,4.26189836 C15.5799612,1.65125367 14.3612376,0 12.9999861,0 C11.6374846,0 10.4193444,1.65125367 9.58812121,4.26189836 C7.15497962,3.00689557 5.12311625,2.69878378 4.16000407,3.66125814 C3.197503,4.62437139 3.50689223,6.65501479 4.76250474,9.08813131 C2.15125183,9.92002204 0.5,11.138747 0.5,12.5 C0.5,13.861253 2.15125183,15.0800057 4.76250474,15.9118687 C3.50689223,18.3456241 3.19814189,20.3756286 4.16000407,21.3393808 C5.12375514,22.301244 7.15500739,21.9931322 9.58812121,20.7387405 C10.4193721,23.3474963 11.6374846,25 12.9999861,25 C14.3612376,25 15.579989,23.3474963 16.411851,20.7387405 C18.8456037,21.9931322 20.875606,22.301244 21.839357,21.3393808 C22.8012192,20.3756286 22.4931078,18.3456241 21.2381064,15.9118687 C23.8474982,15.0800057 25.5,13.861253 25.5,12.5 L25.5,12.5000278 Z M1.63622348,12.5000278 C1.63622348,11.5131367 3.03497504,10.6262736 5.26683863,10.0037722 C5.74308916,10.812524 6.3137009,11.651887 6.96745163,12.5062778 C6.31745091,13.3531686 5.74058916,14.1918926 5.26683863,14.9962833 C3.03494726,14.3737819 1.63622348,13.4869189 1.63622348,12.5000278 Z M8.51309224,10.6375236 C8.2187308,10.9637744 7.94120271,11.291914 7.6705913,11.6193869 C7.16872963,10.9731355 6.72745136,10.3443841 6.33870093,9.73938275 C7.03870171,9.58688242 7.79684144,9.45749324 8.60495345,9.3568819 C8.56495341,9.77499394 8.53745337,10.2037449 8.51306446,10.6375236 L8.51309224,10.6375236 Z M8.60562012,15.6444237 C7.79686922,15.5437845 7.03936838,15.4131731 6.3393676,15.2606728 C6.72622914,14.6588104 7.17561853,14.030059 7.67311908,13.3894186 C7.94186938,13.7138083 8.2212308,14.0381701 8.51373113,14.3631708 C8.53748115,14.7963107 8.56498118,15.2263116 8.60562012,15.6444237 Z M4.96497718,20.5350456 C4.2668653,19.8375441 4.63433793,18.2175405 5.77186697,16.198786 C6.67936798,16.4337865 7.66936908,16.627537 8.73187026,16.7681762 C8.8725093,17.8300674 9.06687063,18.8213196 9.30062089,19.7275716 C7.28186865,20.8663241 5.66125573,21.232575 4.96500496,20.5350734 L4.96497718,20.5350456 Z M8.73123137,8.23126829 C7.66811908,8.37312972 6.67872909,8.56626904 5.77122808,8.80126956 C4.63433793,6.78190396 4.2668653,5.16251147 4.96497718,4.46439881 C5.66183907,3.76750837 7.28247976,4.13439808 9.30062089,5.27251172 C9.06623174,6.17876373 8.87187041,7.16937704 8.73123137,8.23126829 Z M16.1443785,8.1056569 C15.7262391,8.06626793 15.2949887,8.03876786 14.862516,8.0144067 C14.5375156,7.72126716 14.2125152,7.44251654 13.8875149,7.17440483 C14.5293767,6.67626484 15.1581274,6.22690273 15.7593781,5.84004076 C15.9125171,6.54004231 16.0424895,7.29754399 16.1443785,8.10568468 L16.1443785,8.1056569 Z M12.9999861,1.13625253 C13.9856261,1.13625253 14.8737382,2.53625564 15.4962389,4.76751059 C14.6918491,5.24126165 13.8531259,5.81812404 13.0049861,6.46876438 C12.1518741,5.81501292 11.3112342,5.24376165 10.5037333,4.76751059 C11.126234,2.53625564 12.0130961,1.13625253 12.9999861,1.13625253 Z M10.2393719,5.83940187 C10.8443726,6.22751384 11.4724844,6.66940371 12.118124,7.17126594 C11.7918737,7.44190543 11.4637344,7.71940604 11.1368729,8.01376781 C10.7043724,8.03812897 10.2737609,8.06565681 9.85501039,8.10501801 C9.95751051,7.29751622 10.0868718,6.54001453 10.2393997,5.83937409 L10.2393719,5.83940187 Z M9.85498262,16.8943987 C10.2737331,16.9337876 10.7037336,16.9612877 11.1368452,16.9868989 C11.4624566,17.2787606 11.7868459,17.5575112 12.1112073,17.8269007 C11.4699566,18.3244018 10.8418448,18.7744028 10.2399553,19.1606537 C10.086844,18.460041 9.95745495,17.7019004 9.85495484,16.8943987 L9.85498262,16.8943987 Z M12.9999861,23.863803 C12.0130961,23.863803 11.126234,22.4656888 10.5037333,20.2331839 C11.3081231,19.7588217 12.1456241,19.1813204 12.9937361,18.531319 C13.8468482,19.1850704 14.686238,19.7569606 15.4962389,20.2331839 C14.8737382,22.4650777 13.9855983,23.863803 12.9999861,23.863803 Z M15.7599892,19.1606537 C15.1555996,18.7725417 14.5268767,18.3300407 13.8805982,17.8281507 C14.2080986,17.5575112 14.5362378,17.2806495 14.8624604,16.9868989 C15.294322,16.9612599 15.7262114,16.9337876 16.1443229,16.8943987 C16.0424339,17.7019004 15.9124616,18.460041 15.7599336,19.1606537 L15.7599892,19.1606537 Z M16.376851,13.9037809 C16.0649895,14.2393928 15.7449892,14.5750324 15.4093499,14.910672 C15.0749606,15.2450617 14.7393492,15.5656735 14.4024599,15.8781742 C13.9418205,15.8944242 13.4762089,15.9087854 12.9999583,15.9087854 C12.5224578,15.9087854 12.0568184,15.8950353 11.5962068,15.8781742 C11.2605675,15.5656735 10.923706,15.2450339 10.5893168,14.910672 C10.2549275,14.5750324 9.93431604,14.2394205 9.62181569,13.9037809 C9.60492678,13.441891 9.58995454,12.9775288 9.58995454,12.5000278 C9.58995454,12.0225267 9.60431567,11.5581646 9.62181569,11.0962747 C9.93431604,10.760635 10.2549553,10.4250232 10.5893168,10.0893835 C10.923706,9.7549939 11.2605675,9.43438208 11.5962068,9.12188138 C12.0568462,9.10563135 12.5224578,9.0900202 12.9999583,9.0900202 C13.4762089,9.0900202 13.9418205,9.10502023 14.4024599,9.12188138 C14.7393214,9.43438208 15.0749606,9.7549939 15.4093499,10.0893835 C15.7449892,10.4250232 16.0649895,10.760635 16.376851,11.0962747 C16.394351,11.5581646 16.4087121,12.0225267 16.4087121,12.5000278 C16.4087121,12.9775288 16.3949621,13.441891 16.376851,13.9037809 Z M21.034995,4.46439881 C21.7318569,5.16315036 21.3656343,6.78190396 20.2262441,8.80126956 C19.3212431,8.56626904 18.329992,8.37312972 17.2674909,8.23126829 C17.1256018,7.16937704 16.9324905,6.17876373 16.6987402,5.27251172 C18.7168814,4.1343703 20.3374943,3.76750837 21.034995,4.46439881 Z M18.326242,11.6106647 C18.0574917,11.2862751 17.7768525,10.9619132 17.4868522,10.6369125 C17.4612133,10.2050227 17.4324633,9.77441061 17.3943521,9.35627079 C18.201853,9.4569099 18.9599927,9.5862713 19.6599935,9.73877164 C19.273132,10.341273 18.8243815,10.9700244 18.326242,11.6106647 Z M18.3281309,13.3806686 C18.8299926,14.0269201 19.2712709,14.6556715 19.6599935,15.2606728 C18.9599927,15.4131731 18.2018808,15.5437845 17.3943521,15.6444237 C17.4331021,15.2262838 17.4612411,14.7963107 17.4868522,14.3625597 C17.7799636,14.036309 18.0581028,13.7088082 18.3281031,13.3806686 L18.3281309,13.3806686 Z M21.034995,20.5350456 C20.3374943,21.2319083 18.7168536,20.8656853 16.6987402,19.7275438 C16.9324905,18.8212918 17.1262407,17.8300396 17.2674909,16.7681762 C18.329992,16.6269258 19.3212431,16.4338143 20.2262441,16.198786 C21.3662454,18.2175405 21.7324958,19.8375441 21.034995,20.5350456 Z M20.7318558,14.9962833 C20.2568553,14.1887815 19.6849935,13.3481686 19.0312428,12.4937778 C19.6812435,11.646887 20.2587442,10.8093851 20.7318558,10.0037722 C22.9649972,10.6262736 24.3637487,11.5131367 24.3637487,12.5000278 C24.3637487,13.4869189 22.9649972,14.3737819 20.7318558,14.9962833 Z" id="Shape" fill-rule="nonzero"></path>
                    </g>
                </g>
            </g>
        </g>
    </g>
</svg>