<?xml version="1.0" encoding="UTF-8"?>
<svg width="32px" height="38px" viewBox="0 0 32 38" version="1.1" xmlns="http://www.w3.org/2000/svg" xmlns:xlink="http://www.w3.org/1999/xlink">
    <!-- Generator: Sketch 52.5 (67469) - http://www.bohemiancoding.com/sketch -->
    <title>15</title>
    <desc>Created with Sketch.</desc>
    <g id="Page-1" stroke="none" stroke-width="1" fill="none" fill-rule="evenodd">
        <g id="首页" transform="translate(-171.000000, -1435.000000)">
            <g id="Group-9" transform="translate(171.000000, 1435.000000)">
                <g id="15">
                    <rect id="Rectangle-Copy-2" stroke="#000000" stroke-width="2.5" fill-rule="nonzero" x="1.25" y="1.25" width="29.5" height="35.5"></rect>
                    <g id="huaxueshiguan" transform="translate(10.000000, 6.000000)">
                        <path d="M1,9 L1,21.9994884 C1,24.7624623 3.23926598,27 5.99994079,27 C8.76165183,27 11,24.7624623 11,21.9994884 L11,9 L1,9 Z" id="Path" fill="#000000"></path>
                        <path d="M6,17 C6,17.5518283 5.55179867,18 5,18 C4.44829016,18 4,17.5517987 4,17 C4,16.4482902 4.44829016,16 5,16 C5.55182828,16 6,16.4483198 6,17 Z" id="Path" fill="#FFFFFF"></path>
                        <path d="M9,13 C9,14.1036566 8.10359734,15 7,15 C5.89658031,15 5,14.1035973 5,13 C5,11.8965803 5.89658031,11 7,11 C8.10365655,11 9,11.8966395 9,13 Z" id="Path-Copy-10" fill="#FFFFFF"></path>
                        <path d="M8,20.9999408 C8,21.5517364 7.55179867,22 6.99997039,22 C6.44829016,22 6,21.5517068 6,20.9999408 C6,20.4482636 6.44831976,20 6.99997039,20 C7.55179867,20 8,20.4482932 8,20.9999408 Z" id="Path" fill="#FFFFFF"></path>
                        <path d="M12,0 L10.9999975,0 L1.00000247,0 L0,0 L0,0.999980641 L1.00000247,0.999980641 L1.00000247,21.000008 C1.00000247,23.7616125 3.23926072,26 5.99992598,26 C8.76162749,26 10.9999679,23.7616125 10.9999679,21.000008 L10.9999679,1.00001025 L11.9999704,1.00001025 L12,0 Z M9.99987664,21.000008 C9.99987664,23.2060645 8.2059653,24.9999898 5.99992598,24.9999898 C3.79397549,24.9999898 1.99994572,23.2060645 1.99994572,21.000008 L1.99994572,1.00001025 L9.99987664,1.00001025 L9.99987664,21.000008 Z" id="Shape" fill="#000000" fill-rule="nonzero"></path>
                    </g>
                </g>
            </g>
        </g>
    </g>
</svg>