<?xml version="1.0" encoding="UTF-8"?>
<svg width="32px" height="38px" viewBox="0 0 32 38" version="1.1" xmlns="http://www.w3.org/2000/svg" xmlns:xlink="http://www.w3.org/1999/xlink">
    <!-- Generator: Sketch 52.5 (67469) - http://www.bohemiancoding.com/sketch -->
    <title>16</title>
    <desc>Created with Sketch.</desc>
    <g id="Page-1" stroke="none" stroke-width="1" fill="none" fill-rule="evenodd">
        <g id="首页" transform="translate(-171.000000, -1508.000000)" fill-rule="nonzero">
            <g id="Group-13" transform="translate(171.000000, 1508.000000)">
                <g id="16">
                    <rect id="Rectangle-Copy-3" stroke="#000000" stroke-width="2.5" x="1.25" y="1.25" width="29.5" height="35.5"></rect>
                    <g id="shengwuxuebiology" transform="translate(3.000000, 7.000000)" fill="#000000">
                        <path d="M26,9.49539074 C26,8.58544591 25.2506051,7.84978001 24.3263241,7.84978001 C23.4020431,7.84978001 22.6526481,8.58544591 22.6526481,9.49539074 C22.6526481,9.92747399 22.8242653,10.3194008 23.1021216,10.6133459 L22.4058463,11.7730638 C22.2906176,11.7481668 22.1713028,11.7337105 22.0479019,11.7337105 C21.37124,11.7337105 20.7901933,12.1288498 20.5262298,12.6974649 L18.8680811,12.6974649 C18.6229137,12.1706125 18.1047933,11.7923389 17.4910577,11.7417417 L16.7694484,10.5298205 C17.0023574,10.245513 17.14292,9.88651442 17.14292,9.49539074 C17.14292,9.1195265 17.0137985,8.77578742 16.7988685,8.49951114 L17.536005,7.26590544 C17.5556184,7.26670857 17.5752318,7.26831483 17.5956624,7.26831483 C18.5199434,7.26831483 19.2685211,6.53264893 19.2685211,5.62431036 C19.2685211,4.71597179 18.5199434,3.97950276 17.5956624,3.97950276 C16.6713814,3.97950276 15.9219865,4.71597179 15.9219865,5.62431036 C15.9219865,5.97768699 16.0372152,6.3053635 16.2308974,6.57441162 L15.4790508,7.85058314 C15.4757819,7.85058314 15.472513,7.85058314 15.4684268,7.85058314 C14.7852271,7.85058314 14.1992771,8.25295063 13.9393997,8.82799078 L12.0777621,8.83843145 C11.8203363,8.2577694 11.2327518,7.85299253 10.5479176,7.85138627 L9.81404998,6.60573364 C10.1033475,6.30937915 10.2823197,5.90861792 10.2823197,5.46529087 C10.2823197,5.08460786 10.1507465,4.73765626 9.93009587,4.45816747 L10.6222851,3.28559955 C11.509791,3.24544312 12.2175075,2.52744605 12.2175075,1.64400447 C12.2175075,0.735665898 11.4681125,0 10.5438315,0 C9.61955053,0 8.87015559,0.735665898 8.87015559,1.64400447 C8.87015559,2.05440324 9.02379381,2.42866122 9.2763162,2.7161813 L8.61272984,3.82048327 C7.89765834,3.82048327 7.29209492,4.25738529 7.04937922,4.87258188 L5.12318089,4.87258188 C4.84450731,4.34332006 4.28389125,3.98110902 3.63664938,3.98110902 C2.71236838,3.98110902 1.96215622,4.71757804 1.96215622,5.62591661 C1.96215622,6.53425519 2.71236838,7.26992108 3.63664938,7.26992108 C4.2789879,7.26992108 4.83633506,6.91493819 5.11746032,6.39129828 L7.22589973,6.39129828 C7.48495992,6.76555625 7.89847556,7.02737621 8.37573472,7.09323277 L9.21747603,8.4954955 C9.0000943,8.77337803 8.87015559,9.11872337 8.87015559,9.496997 C8.87015559,9.89213632 9.01316989,10.2551505 9.25016502,10.5386549 L8.52937294,11.7393324 C7.88703442,11.768245 7.33949395,12.1537468 7.08615433,12.6990712 L5.15832155,12.6990712 C4.89435801,12.130456 4.31331133,11.7353167 3.63664938,11.7353167 C2.71236838,11.7353167 1.96215622,12.4725889 1.96215622,13.3809274 C1.96215622,13.777673 2.10680497,14.1430966 2.34625177,14.4282073 L1.61565299,15.6818912 C0.718340405,15.711607 0,16.4344228 0,17.3234863 C0,18.2318248 0.749394939,18.9682939 1.67367594,18.9682939 C2.59795694,18.9682939 3.34735188,18.2318248 3.34735188,17.3234863 C3.34735188,16.9267407 3.2051548,16.5637265 2.96734245,16.2802221 L3.69548955,15.0233257 C4.28307402,15.0024443 4.79220493,14.6852085 5.07496464,14.2185907 L7.17032846,14.2185907 C7.43184033,14.6514771 7.88866887,14.956666 8.42231652,15.0144912 L9.20358322,16.3412599 C8.99519095,16.6151268 8.87015559,16.9540471 8.87015559,17.3234863 C8.87015559,17.733885 9.02379381,18.1089462 9.27713343,18.3964662 L8.50077008,19.7152036 C7.627157,19.7698163 6.93578501,20.4813884 6.93578501,21.3535861 C6.93578501,22.2627278 7.68436272,22.9991969 8.60864372,22.9991969 C9.53292472,22.9991969 10.2823197,22.2627278 10.2823197,21.3535861 C10.2823197,20.9279279 10.1172403,20.5424261 9.84755618,20.2508904 L10.2578029,19.5545778 C10.2578029,19.5545778 10.2586201,19.555381 10.2594374,19.5561841 L10.607575,18.9658845 C11.2303002,18.9433969 11.764765,18.5868077 12.0328147,18.0752147 L13.9810781,18.0752147 C14.249945,18.5908234 14.7876788,18.9458063 15.4128556,18.9658845 L16.1450888,20.210734 C15.8525224,20.5062854 15.6719158,20.909456 15.6719158,21.3543893 C15.6719158,22.263531 16.4213107,23 17.3464089,23 C18.2706899,23 19.0200849,22.263531 19.0200849,21.3543893 C19.0200849,20.5030728 18.3597674,19.8019415 17.5163916,19.7192192 L16.7392111,18.3940568 C16.9909162,18.1065368 17.14292,17.733885 17.14292,17.3250925 C17.14292,16.9540471 17.0170674,16.6143236 16.8062235,16.3380473 L17.594028,15.0072631 C18.1007072,14.9333752 18.533019,14.6362176 18.7847242,14.2193938 L20.6104039,14.2193938 C20.9021531,14.7020742 21.4366179,15.0273413 22.0487192,15.0273413 C22.9738174,15.0273413 23.7223951,14.2908723 23.7223951,13.3825337 C23.7223951,13.140792 23.6684583,12.9119003 23.572843,12.7054962 L24.4905862,11.1345764 C25.3372309,11.0502479 26,10.3483134 26,9.49539074 Z M15.4684268,15.7340946 C14.7795065,15.7340946 14.1886532,16.0850618 13.9312274,16.6689364 L12.0793965,16.6689364 C11.822788,16.0842587 11.2311174,15.6770724 10.5430143,15.6770724 C10.5234009,15.6770724 10.5037875,15.6786787 10.4833569,15.6794818 L9.81323275,14.5189608 C10.1025303,14.2242126 10.2815024,13.821042 10.2815024,13.3793212 C10.2815024,12.9608911 10.1213264,12.5786019 9.85899733,12.2894755 L10.5364765,11.1385921 C10.5389282,11.1385921 10.5405626,11.1393952 10.5430143,11.1393952 C11.1918906,11.1393952 11.7533239,10.7755779 12.0311803,10.2447098 L13.9794437,10.2447098 C14.2474933,10.7587122 14.7819582,11.1136951 15.4038661,11.1353796 L16.0813453,12.3007193 C15.8263712,12.5898457 15.6710985,12.966513 15.6710985,13.3793212 C15.6710985,13.827467 15.8541568,14.2627628 16.1499921,14.5599204 L15.4708785,15.7348977 C15.4708785,15.7340946 15.4692441,15.7340946 15.4684268,15.7340946 Z" id="Shape"></path>
                    </g>
                </g>
            </g>
        </g>
    </g>
</svg>