<?xml version="1.0" encoding="UTF-8"?>
<svg width="32px" height="38px" viewBox="0 0 32 38" version="1.1" xmlns="http://www.w3.org/2000/svg" xmlns:xlink="http://www.w3.org/1999/xlink">
    <!-- Generator: Sketch 52.5 (67469) - http://www.bohemiancoding.com/sketch -->
    <title>17</title>
    <desc>Created with Sketch.</desc>
    <g id="Page-1" stroke="none" stroke-width="1" fill="none" fill-rule="evenodd">
        <g id="首页" transform="translate(-171.000000, -1578.000000)" fill-rule="nonzero">
            <g id="Group-14" transform="translate(171.000000, 1578.000000)">
                <g id="17">
                    <rect id="Rectangle-Copy-36" stroke="#000000" stroke-width="2.5" x="1.25" y="1.25" width="29.5" height="35.5"></rect>
                    <g id="renxiang" transform="translate(4.000000, 8.000000)" fill="#040000">
                        <path d="M12.0491914,13.3209296 C14.5315568,13.3209296 17.7928238,10.0152961 17.7928238,5.83367355 C17.7928238,1.65281674 15.6999092,0 12.0491914,0 C8.39847363,0 6.20819627,1.60419322 6.20819627,5.83367355 C6.20819627,9.98619854 9.56682596,13.3209296 12.0491914,13.3209296 Z M23.4030617,18.7778666 C23.1247731,17.9899358 22.7912867,17.213491 22.4666166,16.8685321 C21.8632745,16.2283862 18.3984658,14.3921784 16.8667283,13.5969733 C16.4634247,13.3872905 15.9662853,13.5399042 15.7505071,13.9396351 L14.0010451,17.1721419 C13.7541885,17.6281309 13.0672832,17.5029349 12.9975194,16.9891337 C12.98257,16.8788693 13.0025025,16.7670735 13.0538671,16.6686779 L13.4402513,15.9320507 C13.5414657,15.7394817 13.5158553,15.5048723 13.3754706,15.3386141 L12.6356675,14.4626251 C12.477419,14.2751481 12.244395,14.1669901 11.9988876,14.1670639 C11.7533803,14.1671377 11.5204215,14.2754358 11.3622861,14.4630079 L10.6243995,15.3382313 C10.484149,15.5046959 10.4585532,15.7393231 10.5596188,15.9320507 L10.9460031,16.668295 C10.9977509,16.7666907 11.0173001,16.8788693 11.0023508,16.9887508 C10.9329702,17.5025521 10.2456816,17.6277481 9.99882502,17.171759 L8.24936303,13.9392522 C8.03358485,13.5395213 7.53644549,13.3869076 7.13314189,13.5965904 C5.60140435,14.3917955 2.13659565,16.2276205 1.53325357,16.8681492 C1.20820017,17.2131082 0.874713769,17.989553 0.596808443,18.7774837 C0.213874059,19.8621327 1.01424142,20.9999996 2.16572778,20.9999996 L21.8329924,20.9999996 C22.9856288,21.0007653 23.7863794,19.8625156 23.4030617,18.7778666 Z" id="Shape"></path>
                    </g>
                </g>
            </g>
        </g>
    </g>
</svg>