<?xml version="1.0" encoding="UTF-8"?>
<svg width="32px" height="38px" viewBox="0 0 32 38" version="1.1" xmlns="http://www.w3.org/2000/svg" xmlns:xlink="http://www.w3.org/1999/xlink">
    <!-- Generator: Sketch 52.5 (67469) - http://www.bohemiancoding.com/sketch -->
    <title>18</title>
    <desc>Created with Sketch.</desc>
    <g id="Page-1" stroke="none" stroke-width="1" fill="none" fill-rule="evenodd">
        <g id="首页" transform="translate(-171.000000, -1651.000000)" fill-rule="nonzero">
            <g id="Group-15" transform="translate(171.000000, 1651.000000)">
                <g id="18">
                    <rect id="Rectangle-Copy-69" stroke="#000000" stroke-width="2.5" x="1.25" y="1.25" width="29.5" height="35.5"></rect>
                    <g id="lishishujubukedianji" transform="translate(6.000000, 10.000000)" fill="#000000">
                        <path d="M0.780988457,14.1572303 C0.573468667,14.1572303 0.377105855,14.2374394 0.229833746,14.3805152 C0.0847930324,14.5235909 0.00223139559,14.7165264 0.00223139559,14.9159653 C0.00223139559,15.3365213 0.350329108,15.6768681 0.778757061,15.6768681 L6.7789798,15.6768681 C6.46881582,15.1977812 6.20997393,14.6905126 6.01137972,14.1593981 L0.780988457,14.1572303 Z M0.780988457,2.01963785 L17.3602577,2.01963785 C17.790917,2.01963785 18.1367834,1.679291 18.1367834,1.26090283 C18.1367834,1.0592961 18.0564531,0.866360622 17.9114124,0.723284876 C17.7663717,0.58020913 17.5677775,0.5 17.3602577,0.5 L0.780988457,0.5 C0.361486086,0.517342515 0.0290081427,0.851185922 0.0290081427,1.25873502 C0.0312395383,1.66845193 0.361486086,2.00446315 0.780988457,2.01963785 Z M0.780988457,11.1222902 L5.50485292,11.1222902 C5.52047269,10.6128539 5.58295177,10.1034175 5.69452155,9.6048202 L0.780988457,9.6048202 C0.350329108,9.6048202 0,9.94516705 0,10.3635552 C0,10.7841112 0.350329108,11.1222902 0.780988457,11.1222902 Z M8.62657535,5.05457791 L0.780988457,5.05457791 C0.573468667,5.05457791 0.374874459,5.13478704 0.229833746,5.27786279 C0.0847930324,5.42093854 0.00223139559,5.61387401 0.00446279118,5.81548074 C0.00446279118,6.23603673 0.352560503,6.57638358 0.780988457,6.57638358 L7.12038333,6.57638358 C7.55550547,6.00408059 8.05980087,5.49464422 8.62657535,5.05457791 Z M13.7230829,5.22583525 C10.2599569,5.22583525 7.44616708,7.97895945 7.44616708,11.3629176 C7.44616708,14.7468758 10.2621883,17.5 13.7230829,17.5 C17.1862088,17.5 19.9999987,14.7468758 19.9999987,11.3629176 C20.0022301,7.98112726 17.1839774,5.22583525 13.7230829,5.22583525 Z M15.5483645,12.6440959 L13.2053991,12.6440959 C12.8149049,12.6440959 12.5025095,12.3384341 12.5025095,11.9612344 L12.5025095,9.68502933 C12.5025095,9.30782964 12.8171363,9.00216781 13.2053991,9.00216781 C13.5936619,9.00216781 13.9082887,9.30782964 13.9082887,9.68502933 L13.9082887,11.2783729 L15.5483645,11.2783729 C15.9366273,11.2783729 16.2512541,11.5840347 16.2512541,11.9612344 C16.2512541,12.3362663 15.9366273,12.6440959 15.5483645,12.6440959 Z" id="Shape"></path>
                    </g>
                </g>
            </g>
        </g>
    </g>
</svg>