<?xml version="1.0" encoding="UTF-8"?>
<svg width="32px" height="38px" viewBox="0 0 32 38" version="1.1" xmlns="http://www.w3.org/2000/svg" xmlns:xlink="http://www.w3.org/1999/xlink">
    <!-- Generator: Sketch 52.5 (67469) - http://www.bohemiancoding.com/sketch -->
    <title>19</title>
    <desc>Created with Sketch.</desc>
    <g id="Page-1" stroke="none" stroke-width="1" fill="none" fill-rule="evenodd">
        <g id="首页" transform="translate(-171.000000, -1723.000000)" fill-rule="nonzero">
            <g id="Group-16" transform="translate(171.000000, 1723.000000)">
                <g id="19">
                    <rect id="Rectangle-Copy-70" stroke="#000000" stroke-width="2.5" x="1.25" y="1.25" width="29.5" height="35.5"></rect>
                    <g id="dilixinxi" transform="translate(4.000000, 6.500000)" fill="#000000">
                        <path d="M23.0578005,7.82890026 C22.4531969,6.39872123 21.5877238,5.11585678 20.4859335,4.0140665 C19.3841432,2.91227621 18.1012788,2.04680307 16.6710997,1.44219949 C15.1918159,0.816112532 13.6204604,0.5 12,0.5 C10.3795396,0.5 8.80818414,0.816112532 7.32890026,1.44219949 C5.89872123,2.04680307 4.61585678,2.91227621 3.5140665,4.0140665 C2.41227621,5.11585678 1.54680307,6.39872123 0.942199488,7.82890026 C0.316112532,9.30818414 0,10.8795396 0,12.5 C0,14.1204604 0.316112532,15.6918159 0.942199488,17.1710997 C1.54680307,18.6012788 2.41227621,19.8841432 3.5140665,20.9859335 C4.61585678,22.0877238 5.89872123,22.9531969 7.32890026,23.5578005 C8.80818414,24.1838875 10.3795396,24.5 12,24.5 C13.6204604,24.5 15.1918159,24.1838875 16.6710997,23.5578005 C18.1012788,22.9531969 19.3841432,22.0877238 20.4859335,20.9859335 C21.5877238,19.8841432 22.4531969,18.6012788 23.0578005,17.1710997 C23.6838875,15.6918159 24,14.1204604 24,12.5 C24,10.8795396 23.6838875,9.30818414 23.0578005,7.82890026 Z M12.4695652,7.80434783 C13.8721228,7.76751918 15.259335,7.56189258 16.6005115,7.19974425 C16.6250639,7.19360614 16.6496164,7.20588235 16.6557545,7.23043478 C17.1652174,8.76496164 17.4537084,10.3762148 17.5028133,12.0150895 C17.5028133,12.0396419 17.4813299,12.0611253 17.4567775,12.0611253 L12.4695652,12.0611253 C12.4450128,12.0611253 12.4235294,12.0396419 12.4235294,12.0150895 L12.4235294,7.85038363 C12.4235294,7.8258312 12.4419437,7.80741688 12.4695652,7.80434783 Z M12.4235294,6.88363171 L12.4235294,1.86879795 C12.4235294,1.84117647 12.4450128,1.82276215 12.4726343,1.82276215 C12.8992327,1.84117647 13.3196931,1.88414322 13.7340153,1.9516624 C13.7462916,1.95473146 13.7554987,1.96086957 13.7616368,1.96700767 C14.8388747,3.28670077 15.6982097,4.75370844 16.3212276,6.31278772 C16.3304348,6.33734015 16.3181586,6.36803069 16.2905371,6.3741688 C15.0506394,6.70255754 13.7677749,6.88976982 12.4726343,6.92659847 C12.4450128,6.92966752 12.4235294,6.9112532 12.4235294,6.88363171 Z M11.5028133,6.92966752 C10.2168798,6.89283887 8.94629156,6.7056266 7.71560102,6.37723785 C7.68797954,6.37109974 7.67570332,6.34040921 7.68491049,6.31585678 C8.30792839,4.75370844 9.16726343,3.28670077 10.2414322,1.96700767 C10.2475703,1.95780051 10.2598465,1.9516624 10.2690537,1.9516624 C10.6741688,1.88414322 11.085422,1.84117647 11.5028133,1.82276215 C11.5304348,1.82276215 11.5519182,1.84117647 11.5519182,1.86879795 L11.5519182,6.88363171 C11.5488491,6.90818414 11.5273657,6.92966752 11.5028133,6.92966752 Z M11.5488491,7.85038363 L11.5488491,12.0181586 C11.5488491,12.042711 11.5273657,12.0641944 11.5028133,12.0641944 L6.54629156,12.0641944 C6.52173913,12.0641944 6.50025575,12.042711 6.50025575,12.0181586 C6.54936061,10.3823529 6.83785166,8.77109974 7.34731458,7.23350384 C7.35652174,7.20895141 7.37800512,7.19667519 7.40255754,7.2028133 C8.73452685,7.56496164 10.112532,7.76751918 11.5028133,7.80741688 C11.5304348,7.80434783 11.5488491,7.8258312 11.5488491,7.85038363 Z M5.57953964,12.0611253 L1.36879795,12.0611253 C1.34117647,12.0611253 1.32276215,12.0396419 1.32276215,12.0120205 C1.43017903,9.65191816 2.30485934,7.49130435 3.70127877,5.76956522 C3.71662404,5.7511509 3.73810742,5.74808184 3.75959079,5.757289 C4.63120205,6.22071611 5.53964194,6.61048593 6.47570332,6.92046036 C6.50025575,6.92966752 6.51253197,6.95421995 6.50332481,6.97877238 C5.96624041,8.60230179 5.67161125,10.2933504 5.62250639,12.0181586 C5.62250639,12.042711 5.60409207,12.0611253 5.57953964,12.0611253 Z M5.62250639,12.9818414 C5.6685422,14.7066496 5.96317136,16.3976982 6.50332481,18.0212276 C6.51253197,18.0457801 6.4971867,18.0703325 6.47570332,18.0795396 C5.53964194,18.3895141 4.63120205,18.7762148 3.75959079,19.242711 C3.74117647,19.2519182 3.71662404,19.2488491 3.70127877,19.2304348 C2.30179028,17.5086957 1.42710997,15.3480818 1.32276215,12.9879795 C1.32276215,12.9603581 1.34117647,12.9388747 1.36879795,12.9388747 L5.57647059,12.9388747 C5.60409207,12.9388747 5.62250639,12.957289 5.62250639,12.9818414 Z M6.54629156,12.9388747 L11.5028133,12.9388747 C11.5273657,12.9388747 11.5488491,12.9603581 11.5488491,12.9849105 L11.5488491,17.1526854 C11.5488491,17.1772379 11.5304348,17.1987212 11.5028133,17.1987212 C10.1094629,17.2386189 8.7314578,17.4411765 7.39948849,17.8033248 C7.37493606,17.8094629 7.35038363,17.7971867 7.34424552,17.7726343 C6.83478261,16.2381074 6.54629156,14.6268542 6.4971867,12.9879795 C6.4971867,12.9603581 6.51867008,12.9388747 6.54629156,12.9388747 Z M11.5488491,18.1163683 L11.5488491,23.131202 C11.5488491,23.1588235 11.5273657,23.1772379 11.4997442,23.1772379 C11.0823529,23.1588235 10.6710997,23.1158568 10.2659847,23.0483376 C10.2537084,23.0452685 10.2445013,23.0391304 10.2383632,23.0329923 C9.16419437,21.7132992 8.30485934,20.2462916 7.68184143,18.6872123 C7.67263427,18.6626598 7.68491049,18.6319693 7.71253197,18.6258312 C8.94629156,18.2974425 10.2168798,18.1132992 11.5028133,18.0734015 C11.5273657,18.0703325 11.5488491,18.0918159 11.5488491,18.1163683 Z M12.4695652,18.0703325 C13.7647059,18.1071611 15.0445013,18.2943734 16.287468,18.6227621 C16.3150895,18.6289003 16.3273657,18.6595908 16.3181586,18.6841432 C15.6951407,20.2432225 14.8358056,21.7102302 13.7585678,23.0299233 C13.7524297,23.0391304 13.7401535,23.0452685 13.7309463,23.0452685 C13.316624,23.1127877 12.8961637,23.1557545 12.4695652,23.1741688 C12.4419437,23.1741688 12.4204604,23.1557545 12.4204604,23.128133 L12.4204604,18.1163683 C12.4235294,18.0887468 12.4450128,18.0703325 12.4695652,18.0703325 Z M12.4235294,17.1496164 L12.4235294,12.9818414 C12.4235294,12.957289 12.4450128,12.9358056 12.4695652,12.9358056 L17.4537084,12.9358056 C17.4782609,12.9358056 17.4997442,12.957289 17.4997442,12.9818414 C17.4540438,14.6096856 17.1686227,16.2219011 16.6526854,17.7664962 C16.6434783,17.7910486 16.6219949,17.8033248 16.5974425,17.7971867 C15.256266,17.4350384 13.8690537,17.2294118 12.4664962,17.1925831 C12.4419437,17.1925831 12.4235294,17.1741688 12.4235294,17.1496164 Z M18.4204604,12.9388747 L22.628133,12.9388747 C22.6557545,12.9388747 22.6741688,12.9603581 22.6741688,12.9879795 C22.5667519,15.3480818 21.6951407,17.5086957 20.2956522,19.2304348 C20.2803069,19.2488491 20.2588235,19.2519182 20.2373402,19.242711 C19.3657289,18.7792839 18.457289,18.3895141 17.5212276,18.0826087 C17.4966752,18.0734015 17.484399,18.0488491 17.4936061,18.0242967 C18.0306905,16.4007673 18.3253197,14.7097187 18.3744246,12.9849105 C18.3774936,12.957289 18.3959079,12.9388747 18.4204604,12.9388747 Z M18.3774936,12.0181586 C18.3314578,10.2933504 18.0368286,8.60230179 17.4997442,6.97877238 C17.4905371,6.95421995 17.5058824,6.92966752 17.5273657,6.92046036 C18.4603581,6.61048593 19.368798,6.22378517 20.2434783,5.757289 C20.2618926,5.74808184 20.286445,5.7511509 20.3017903,5.76956522 C21.7012788,7.49130435 22.5759591,9.65191816 22.6803069,12.0120205 C22.6803069,12.0396419 22.6618926,12.0611253 22.6342711,12.0611253 L18.4204604,12.0611253 C18.3959079,12.0611253 18.3774936,12.042711 18.3774936,12.0181586 Z M19.6204604,5.09744246 C18.8501279,5.49335038 18.0491049,5.82787724 17.2265985,6.10102302 C17.202046,6.10716113 17.1774936,6.09795396 17.1682864,6.07340153 C16.6526854,4.7629156 15.9836317,3.52608696 15.1734015,2.37826087 C15.1488491,2.34143223 15.1826087,2.29539642 15.2255754,2.30767263 C16.913555,2.84168798 18.4235294,3.78695652 19.6327366,5.02378517 C19.6542199,5.04526854 19.6480818,5.08209719 19.6204604,5.09744246 Z M8.82659847,2.37826087 C8.01329923,3.52608696 7.34731458,4.7629156 6.83171355,6.07340153 C6.82250639,6.09488491 6.79795396,6.10716113 6.77340153,6.10102302 C5.95089514,5.83094629 5.14987212,5.49641944 4.37953964,5.10051151 C4.35191816,5.08516624 4.34578005,5.0483376 4.36726343,5.02685422 C5.57953964,3.79002558 7.08644501,2.84782609 8.77442455,2.31074169 C8.8173913,2.29539642 8.85421995,2.34450128 8.82659847,2.37826087 Z M4.37953964,19.9025575 C5.14987212,19.5066496 5.95089514,19.1721228 6.77340153,18.898977 C6.79795396,18.8928389 6.82250639,18.902046 6.83171355,18.9265985 C7.34731458,20.2370844 8.01636829,21.473913 8.82659847,22.6217391 C8.8511509,22.6585678 8.8173913,22.7046036 8.77442455,22.6923274 C7.08644501,22.158312 5.57647059,21.2130435 4.36726343,19.9762148 C4.34578005,19.9547315 4.35191816,19.9148338 4.37953964,19.9025575 Z M15.1734015,22.6217391 C15.9836317,21.4769821 16.6526854,20.2401535 17.1682864,18.9296675 C17.1774936,18.9081841 17.202046,18.8959079 17.2265985,18.902046 C18.0491049,19.1721228 18.8501279,19.5066496 19.6204604,19.9025575 C19.6480818,19.9179028 19.6542199,19.9547315 19.6327366,19.9762148 C18.4204604,21.2130435 16.913555,22.155243 15.2255754,22.6923274 C15.1826087,22.7046036 15.1488491,22.6554987 15.1734015,22.6217391 Z" id="Shape"></path>
                    </g>
                </g>
            </g>
        </g>
    </g>
</svg>