<?xml version="1.0" encoding="UTF-8"?>
<svg width="34px" height="34px" viewBox="0 0 34 34" version="1.1" xmlns="http://www.w3.org/2000/svg" xmlns:xlink="http://www.w3.org/1999/xlink">
    <!-- Generator: Sketch 52.5 (67469) - http://www.bohemiancoding.com/sketch -->
    <title>2</title>
    <desc>Created with Sketch.</desc>
    <g id="Page-1" stroke="none" stroke-width="1" fill="none" fill-rule="evenodd">
        <g id="首页" transform="translate(-862.000000, -38.000000)" fill-rule="nonzero">
            <g id="2" transform="translate(863.000000, 39.000000)">
                <circle id="Oval-Copy-6" stroke="#FFFFFF" cx="16" cy="16" r="16"></circle>
                <g id="ai-phone" transform="translate(8.000000, 5.000000)" fill="#FFFFFF">
                    <path d="M13.3340271,0 L2.66597294,0 C1.1925078,0 0,1.23320312 0,2.75214844 L0,19.2478516 C0,20.7689453 1.19458897,22 2.66597294,22 L8,22 L13.3340271,22 C14.8074922,22 16,20.7667969 16,19.2478516 L16,2.75214844 C16,1.23105469 14.805411,0 13.3340271,0 Z M5.33402706,2.06464844 C5.33402706,1.684375 5.63163371,1.37714844 6,1.37714844 L10,1.37714844 C10.3683663,1.37714844 10.6659729,1.684375 10.6659729,2.06464844 C10.6659729,2.44492187 10.3683663,2.75214844 10,2.75214844 L6,2.75214844 C5.63163371,2.75214844 5.33402706,2.44492187 5.33402706,2.06464844 Z M8,20.6228516 C7.26326743,20.6228516 6.66597294,20.0041016 6.66597294,19.2457031 C6.66597294,18.4851562 7.26326743,17.8685547 8,17.8685547 C8.73673257,17.8685547 9.33402706,18.4851562 9.33402706,19.2457031 C9.33402706,20.0041016 8.73673257,20.6228516 8,20.6228516 Z M14.6659729,16.2335937 C14.6659729,16.3775391 14.55359,16.4957031 14.4120708,16.4957031 L1.58792924,16.4957031 C1.44849116,16.4957031 1.33402706,16.3796875 1.33402706,16.2335937 L1.33402706,4.38925781 C1.33402706,4.2453125 1.44640999,4.12714844 1.58792924,4.12714844 L14.4141519,4.12714844 C14.55359,4.12714844 14.6680541,4.24316406 14.6680541,4.38925781 L14.6680541,16.2335937 L14.6659729,16.2335937 Z" id="Shape"></path>
                </g>
            </g>
        </g>
    </g>
</svg>