<?xml version="1.0" encoding="UTF-8"?>
<svg width="33px" height="38px" viewBox="0 0 33 38" version="1.1" xmlns="http://www.w3.org/2000/svg" xmlns:xlink="http://www.w3.org/1999/xlink">
    <!-- Generator: Sketch 52.5 (67469) - http://www.bohemiancoding.com/sketch -->
    <title>20</title>
    <desc>Created with Sketch.</desc>
    <g id="Page-1" stroke="none" stroke-width="1" fill="none" fill-rule="evenodd">
        <g id="首页" transform="translate(-170.000000, -1796.000000)" fill-rule="nonzero" stroke="#000000">
            <g id="Group-17" transform="translate(171.000000, 1796.000000)">
                <g id="20">
                    <rect id="Rectangle-Copy-71" stroke-width="2.5" x="1.25" y="1.25" width="29.5" height="35.5"></rect>
                    <path d="M21.7378336,11.1544727 C26.6454776,9.73433259 29.9361587,9.93481597 30.7997699,11.6845878 C31.6412611,13.4382548 29.8081766,16.261805 25.7199315,19.4371136 L25.7199315,19.4874552 C25.7443538,25.2831541 21.1529614,30 15.5114101,30 C13.2703924,30 11.05216,29.2275364 9.27487606,27.8182687 C7.08843448,28.4681024 5.22161572,28.7706093 3.73986155,28.7706093 C1.90818905,28.7706093 0.662651755,28.2688172 0.198628056,27.3154122 C-0.64286427,25.5617427 1.21389548,22.738187 5.30288875,19.5628728 L5.30288875,19.5125448 C5.30288875,13.7168459 9.89428115,9 15.5358324,9 C17.762359,9 19.9663938,9.76250587 21.7378336,11.1544727 Z M21.1920518,12.006317 C19.5399493,10.6620509 17.5945117,9.97849462 15.5114101,9.97849462 C10.4071494,9.97849462 6.25535845,14.2437276 6.25535845,19.4874552 L6.25535845,19.6460785 C6.29435409,19.7527252 6.29406895,19.8663947 6.25843624,19.9709244 C6.2663955,20.2037909 6.28979186,20.4272993 6.32862535,20.6666667 C6.49958145,22.0215054 6.93918285,23.3010753 7.62300725,24.4802867 C7.66960525,24.5520936 7.69397589,24.6340492 7.6976899,24.7172784 C10.10297,24.2404614 13.2734139,23.0467873 16.4883021,21.4193548 C19.6516645,19.806317 22.4657336,17.9465785 24.2906661,16.264221 C24.2329309,16.2142827 24.1861576,16.1504003 24.1569043,16.0752688 C23.6684583,14.8207885 22.9357893,13.6415771 21.9833196,12.7132616 C21.8104977,12.5357176 21.6185671,12.3581736 21.4244304,12.197994 C21.3302115,12.1613859 21.2486246,12.0953735 21.1920518,12.006317 Z M23.3181803,12.7015949 C24.0302819,13.5602108 24.6070583,14.5303581 25.0074001,15.5592458 C26.0122784,14.4943575 26.4467101,13.6294743 26.2083775,13.1397849 C25.955601,12.6204182 24.9034002,12.4743549 23.3181803,12.7015949 Z M6.73639123,24.8727734 C6.17914048,23.9282314 5.77947187,22.9043871 5.54697287,21.8307888 C4.44109496,22.962419 3.93008513,23.8926345 4.17946295,24.4050179 C4.41521388,24.8894029 5.32804073,25.0453214 6.73639123,24.8727734 Z M5.42894694,21.1897045 C5.4088778,21.057798 5.39127507,20.9252507 5.37615565,20.7921147 C5.37523496,20.7859667 5.37432294,20.7798187 5.37341961,20.7736708 C1.55113948,23.8563262 0.639782208,25.9637638 1.07783086,26.8637993 C1.54185455,27.8172043 3.95966225,28.3691756 9.25930135,26.7885305 C11.8236428,26.0358423 14.6322073,24.8817204 17.4163495,23.4516129 C20.2004917,22.0215054 22.8136778,20.4157706 24.9384179,18.7849462 C29.3588542,15.3978495 30.3845908,13.0896057 29.9205671,12.1362007 C29.4836388,11.2384671 27.3144362,10.6966547 22.6381759,11.9560473 C22.6478773,11.9659178 22.657534,11.9757905 22.667144,11.9856631 C22.7509012,12.0697078 22.8332602,12.1551888 22.9141715,12.2420426 C24.4460583,11.9733211 26.1718492,11.9375869 26.6235566,12.8888889 C26.9898911,13.6666667 26.4037559,14.8458781 24.9139956,16.3010753 C23.0823231,18.0824373 20.0783802,20.0896057 16.6836805,21.8207885 C13.2889808,23.5770609 9.91870345,24.8064516 7.42762885,25.2580645 C6.79264905,25.3584229 6.25535845,25.4086022 5.79133475,25.4086022 C4.71675355,25.4086022 4.00850685,25.1326165 3.73986155,24.5806452 C3.27082889,23.6169485 4.31331222,22.2755398 5.42894694,21.1897045 Z M10.4804163,27.4659498 C11.9701766,28.4695341 13.7041599,28.9964158 15.5114101,28.9964158 C20.3958701,28.9964158 24.4011273,25.1075269 24.7430395,20.1899642 C22.7404109,21.6451613 20.3714478,23.1003584 17.8803732,24.3548387 C15.3648763,25.6344086 12.8249571,26.688172 10.4804163,27.4659498 Z" id="Combined-Shape" stroke-width="0.5" fill="#000000"></path>
                </g>
            </g>
        </g>
    </g>
</svg>