<?xml version="1.0" encoding="UTF-8"?>
<svg width="32px" height="38px" viewBox="0 0 32 38" version="1.1" xmlns="http://www.w3.org/2000/svg" xmlns:xlink="http://www.w3.org/1999/xlink">
    <!-- Generator: Sketch 52.5 (67469) - http://www.bohemiancoding.com/sketch -->
    <title>21</title>
    <desc>Created with Sketch.</desc>
    <g id="Page-1" stroke="none" stroke-width="1" fill="none" fill-rule="evenodd">
        <g id="首页" transform="translate(-171.000000, -1866.000000)" fill-rule="nonzero">
            <g id="Group-18" transform="translate(171.000000, 1866.000000)">
                <g id="21">
                    <rect id="Rectangle-Copy-72" stroke="#000000" stroke-width="2.5" x="1.25" y="1.25" width="29.5" height="35.5"></rect>
                    <path d="M10,9 C7.23849372,9 5,11.2384937 5,14 C5,16.7615063 7.23849372,19 10,19 C11.3807531,19 14.9958159,18.9979079 14.9958159,18.9979079 C14.9958159,18.9979079 15,15.3807531 15,14 C15,11.2384937 12.7615063,9 10,9 Z M22,9 C19.2384937,9 17,11.2384937 17,14 C17,15.3807531 17.0041841,18.9979079 17.0041841,18.9979079 C17.0041841,18.9979079 20.6192469,19 22,19 C24.7615063,19 27,16.7615063 27,14 C27,11.2384937 24.7615063,9 22,9 Z M10,20 C7.23849372,20 5,22.2384937 5,25 C5,27.7615063 7.23849372,30 10,30 C12.7615063,30 15,27.7615063 15,25 C15,23.6192469 14.9958159,20.0020921 14.9958159,20.0020921 C14.9958159,20.0020921 11.3807531,20 10,20 Z M22,30 C20.665272,30 19.4079498,29.4791885 18.4644351,28.5358712 C17.5209205,27.5925539 17,26.3354947 17,25.0010458 C17,23.8192847 17.0041841,20.7048735 17.0041841,20.6734993 C17.0041841,20.3032838 17.3033473,20.0041832 17.6736402,20.0041832 C18.0439331,20.0041832 18.3430962,20.3053754 18.3430962,20.6734993 C18.3430962,20.7048735 18.3389121,23.8192847 18.3389121,24.9989542 C18.3389121,27.0173604 19.9811715,28.6592763 22,28.6592763 C24.0188285,28.6592763 25.6610879,27.0173604 25.6610879,24.9989542 C25.6610879,22.980548 24.0188285,21.3386321 22,21.3386321 L20.9895397,21.3386321 C20.6192469,21.3386321 20.3200837,21.0395315 20.3200837,20.669316 C20.3200837,20.2991006 20.6192469,20 20.9895397,20 L22,20 C23.334728,20 24.5920502,20.5208115 25.5355649,21.4641288 C26.4790795,22.4074461 27,23.6645053 27,24.9989542 C27,26.3334031 26.4790795,27.5904622 25.5355649,28.5337795 C24.5920502,29.4791885 23.334728,30 22,30 Z" id="Shape" fill="#000000"></path>
                </g>
            </g>
        </g>
    </g>
</svg>