<?xml version="1.0" encoding="UTF-8"?>
<svg width="32px" height="38px" viewBox="0 0 32 38" version="1.1" xmlns="http://www.w3.org/2000/svg" xmlns:xlink="http://www.w3.org/1999/xlink">
    <!-- Generator: Sketch 52.5 (67469) - http://www.bohemiancoding.com/sketch -->
    <title>22</title>
    <desc>Created with Sketch.</desc>
    <g id="Page-1" stroke="none" stroke-width="1" fill="none" fill-rule="evenodd">
        <g id="首页" transform="translate(-171.000000, -1940.000000)">
            <g id="Group-20" transform="translate(171.000000, 1940.000000)">
                <g id="22">
                    <g id="Group-19" transform="translate(5.000000, 9.000000)">
                        <path d="M11.0286353,20.9999611 C6.77927163,21.0114905 2.94191318,18.4606083 1.30775703,14.5380119 C-0.326399116,10.6154155 0.564877412,6.09458044 3.56555773,3.08573606 C6.56623805,0.0768916844 11.0846343,-0.826664277 15.0116555,0.796828838 C18.9386766,2.42032195 21.4999747,6.25073636 21.4999903,10.5001163 C21.5037706,13.2810713 20.4026649,15.949627 18.4389044,17.9187305 C16.4751438,19.8878339 13.8095898,20.9961859 11.0286353,20.9999611 Z" id="Path" fill="#000000"></path>
                        <path d="M8.66333457,8.42321385 C8.39773725,8.69956053 7.5,9.59091597 7.5,9.9729525 C7.50934671,10.121012 7.62275632,10.2390927 7.76541482,10.2492992 C8.13232247,10.2492992 9.11183813,8.40218954 9.86719329,8.40218954 C10.0305676,8.40218954 10.2140214,8.59330251 10.0710917,8.97496021 L8.64307251,12.7110387 C8.49977771,13.0724298 7.80593894,14.8134707 7.80593894,15.8324873 C7.80593894,16.639556 8.31614139,17 9.05105191,17 C11.1121237,17 13.499579,14.3672248 13.499579,13.751269 C13.5075136,13.5961781 13.4024498,13.4594196 13.2549739,13.4328737 C12.9692971,13.4328737 11.8464867,15.2377453 11.2342437,15.2377453 C11.1630374,15.2341654 11.0964175,15.2002289 11.0501395,15.1439616 C11.0038614,15.0876944 10.9820347,15.0140929 10.9898212,14.9405637 C10.9898212,14.6009546 11.2141642,14.0692855 11.3366493,13.751269 L12.8050101,9.61194029 C13.5399206,7.55174632 12.6009291,7 11.7232714,7 C10.5398573,7 9.4785632,7.61595576 8.6626044,8.42245626 L8.66333457,8.42321385 Z" id="Path" fill="#FFFFFF"></path>
                        <path d="M13.128225,3.00282367 C12.2429813,3.00337715 11.5200686,3.72238635 11.5,4.62225669 C11.5,5.453013 12.036229,5.99950619 12.8507855,5.99950619 C13.2815422,6.01026481 13.6985346,5.84484718 14.008316,5.54032286 C14.3180973,5.23579855 14.4947642,4.81763142 14.4987262,4.37953137 C14.5149758,4.00643162 14.3751549,3.64377018 14.113865,3.38129535 C13.8525751,3.11882052 13.4942317,2.98105844 13.1275145,3.00210127 L13.128225,3.00282367 Z" id="Path" fill="#FFFFFF"></path>
                    </g>
                    <rect id="Rectangle-Copy-73" stroke="#000000" stroke-width="2.5" fill-rule="nonzero" x="1.25" y="1.25" width="29.5" height="35.5"></rect>
                </g>
            </g>
        </g>
    </g>
</svg>