<?xml version="1.0" encoding="UTF-8"?>
<svg width="32px" height="38px" viewBox="0 0 32 38" version="1.1" xmlns="http://www.w3.org/2000/svg" xmlns:xlink="http://www.w3.org/1999/xlink">
    <!-- Generator: Sketch 52.5 (67469) - http://www.bohemiancoding.com/sketch -->
    <title>23</title>
    <desc>Created with Sketch.</desc>
    <g id="Page-1" stroke="none" stroke-width="1" fill="none" fill-rule="evenodd">
        <g id="首页" transform="translate(-171.000000, -2010.000000)">
            <g id="Group-22" transform="translate(171.000000, 2010.000000)">
                <g id="23">
                    <rect id="Rectangle-Copy-74" stroke="#000000" stroke-width="2.5" fill-rule="nonzero" x="1.25" y="1.25" width="29.5" height="35.5"></rect>
                    <g id="Group-21" transform="translate(6.000000, 9.000000)" fill="#000000">
                        <path d="M10,20 C4.4771525,20 6.76353751e-16,15.5228475 0,10 C-6.76353751e-16,4.4771525 4.4771525,1.05991604e-15 10,0 C15.5228475,-1.05991604e-15 20,4.4771525 20,10 C20,15.5228475 15.5228475,20 10,20 Z M10,1.66666667 C5.39762708,1.66666667 1.66666667,5.39762708 1.66666667,10 C1.66666667,14.6023729 5.39762708,18.3333333 10,18.3333333 C14.6023729,18.3333333 18.3333333,14.6023729 18.3333333,10 C18.3287342,5.40088179 14.5991205,1.6749977 10,1.67499999 L10,1.66666667 Z" id="Shape" fill-rule="nonzero"></path>
                        <path d="M3,2 C2.99999999,2.71453118 3.38119783,3.37478522 3.99999999,3.73205081 C4.61880215,4.0893164 5.38119785,4.0893164 6.00000001,3.73205081 C6.61880217,3.37478522 7.00000001,2.71453118 7,2 C7.00000001,1.28546882 6.61880217,0.625214785 6.00000001,0.267949193 C5.38119785,-0.0893163978 4.61880215,-0.0893163978 3.99999999,0.267949193 C3.38119783,0.625214785 2.99999999,1.28546882 3,2 Z" id="Path"></path>
                        <path d="M5,10 C4.99999997,11.7863279 5.95299458,13.436963 7.49999998,14.330127 C9.04700537,15.223291 10.9529946,15.223291 12.5,14.330127 C14.0470054,13.436963 15,11.7863279 15,10 C15,8.21367206 14.0470054,6.56303696 12.5,5.66987298 C10.9529946,4.77670901 9.04700537,4.77670901 7.49999998,5.66987298 C5.95299458,6.56303696 4.99999997,8.21367206 5,10 Z" id="Path"></path>
                        <path d="M3,18 C3,19.1045695 3.8954305,20 5,20 C6.1045695,20 7,19.1045695 7,18 C7,16.8954305 6.1045695,16 5,16 C3.8954305,16 3,16.8954305 3,18 Z" id="Path"></path>
                        <path d="M17,10 C17,11.1045695 17.8954305,12 19,12 C20.1045695,12 21,11.1045695 21,10 C21,8.8954305 20.1045695,8 19,8 C17.8954305,8 17,8.8954305 17,10 Z" id="Path"></path>
                    </g>
                </g>
            </g>
        </g>
    </g>
</svg>