<?xml version="1.0" encoding="UTF-8"?>
<svg width="32px" height="38px" viewBox="0 0 32 38" version="1.1" xmlns="http://www.w3.org/2000/svg" xmlns:xlink="http://www.w3.org/1999/xlink">
    <!-- Generator: Sketch 52.5 (67469) - http://www.bohemiancoding.com/sketch -->
    <title>24</title>
    <desc>Created with Sketch.</desc>
    <g id="Page-1" stroke="none" stroke-width="1" fill="none" fill-rule="evenodd">
        <g id="首页" transform="translate(-171.000000, -2083.000000)" fill-rule="nonzero">
            <g id="Group-23" transform="translate(171.000000, 2083.000000)">
                <g id="24">
                    <rect id="Rectangle-Copy-75" stroke="#000000" stroke-width="2.5" x="1.25" y="1.25" width="29.5" height="35.5"></rect>
                    <g id="guangboshajun" transform="translate(4.000000, 8.000000)" fill="#000000">
                        <path d="M4.03759766,5.58324382 C4.31835937,5.86397812 4.68896485,6.00546821 5.05957032,6.00546821 C5.43017579,6.00546821 5.79853515,5.86397812 6.08154297,5.58324382 C6.6453125,5.01952934 6.6453125,4.10321258 6.08154297,3.5394981 L5.91308593,3.36881164 C5.3493164,2.80509716 4.43291015,2.80509716 3.86914062,3.36881164 C3.30537109,3.93252612 3.30537109,4.84884288 3.86914062,5.41255736 L4.03759766,5.58324382 Z M12,3.13074895 C12.7973633,3.13074895 13.4464844,2.48169124 13.4464844,1.68440581 L13.4464844,1.44634314 C13.4442383,0.649057709 12.7973633,0 12,0 C11.2026367,0 10.5535156,0.649057709 10.5535156,1.44634314 L10.5535156,1.6866517 C10.5535156,2.48169124 11.2026367,3.13074895 12,3.13074895 Z M2.18681641,10.0525339 L1.94648438,10.0525339 C1.14912109,10.0525339 0.5,10.7015916 0.5,11.4988771 C0.5,12.2961625 1.14912109,12.9452202 1.94648438,12.9452202 L2.18681641,12.9452202 C2.9841797,12.9452202 3.6333008,12.2961625 3.63330077,11.4988771 C3.63105469,10.7015916 2.98193359,10.0525339 2.18681641,10.0525339 Z M18.9404297,6.00546821 C19.3110352,6.00546821 19.6793945,5.86397812 19.9624023,5.58324382 L20.1331055,5.41255736 C20.696875,4.84884288 20.696875,3.93252612 20.1331055,3.36881164 C19.5693359,2.80509716 18.6529297,2.80509716 18.0891602,3.36881164 L17.918457,3.5394981 C17.3546875,4.10321258 17.3546875,5.01952934 17.918457,5.58324382 C18.1992187,5.86397812 18.5698242,6.00546821 18.9404297,6.00546821 Z M22.0535156,10.0525339 L21.8131836,10.0525339 C21.0158203,10.0525339 20.3666992,10.7015916 20.3666992,11.4988771 C20.3666992,12.2961625 21.0158203,12.9452202 21.8131836,12.9452202 L22.0535156,12.9452202 C22.8508789,12.9452202 23.5,12.2961625 23.5,11.4988771 C23.5,10.7015916 22.8508789,10.0525339 22.0535156,10.0525339 Z M19.9624023,17.4167562 C19.3986328,16.8530417 18.4822266,16.8530417 17.918457,17.4167562 C17.3546875,17.9804707 17.3546875,18.8967874 17.918457,19.4605019 L18.0891602,19.6311884 C18.3699219,19.9119227 18.7405273,20.0534127 19.1111328,20.0534127 C19.4817383,20.0534127 19.8500976,19.9119227 20.1331055,19.6311884 C20.696875,19.0674739 20.696875,18.1511571 20.1331055,17.5874426 L19.9624023,17.4167562 Z M12,4.22224391 C7.98847657,4.22224391 4.72265626,7.48549946 4.72265624,11.4988771 C4.72265624,15.5100088 7.98623046,18.7755102 12,18.7755102 C16.0137695,18.7755102 19.2773437,15.5100088 19.2773437,11.4988771 C19.2773437,7.48774535 16.0115234,4.22224393 12,4.22224391 Z M12,16.0827068 C9.47089844,16.0827068 7.41572266,14.0254858 7.41572266,11.4988771 C7.41572266,8.97226835 9.47314453,6.91504737 12,6.91504737 C14.5268555,6.91504737 16.5842773,8.97002246 16.5842773,11.4988771 C16.5842773,14.0277317 14.5291016,16.0827068 12,16.0827068 Z M4.03759766,17.4167562 L3.86689454,17.5874426 C3.30312501,18.1511571 3.30312501,19.0674739 3.86689454,19.6311884 C4.14765625,19.9119227 4.51826172,20.0534127 4.88886719,20.0534127 C5.25947266,20.0534127 5.63007814,19.9119227 5.91083984,19.6311884 L6.08154297,19.4605019 C6.6453125,18.8967874 6.6453125,17.9804707 6.08154297,17.4167562 C5.51777344,16.8530417 4.60136719,16.8530417 4.03759766,17.4167562 Z M12,19.8670052 C11.2026367,19.8670052 10.5535156,20.5160629 10.5535156,21.3133483 L10.5535156,21.5536569 C10.5535156,22.3509423 11.2026367,23 12,23 C12.7973633,23 13.4464844,22.3509423 13.4464844,21.5536569 L13.4464844,21.3133483 C13.4442383,20.5160629 12.7973633,19.8670052 12,19.8670052 Z" id="Shape"></path>
                    </g>
                </g>
            </g>
        </g>
    </g>
</svg>