<?xml version="1.0" encoding="UTF-8"?>
<svg width="32px" height="38px" viewBox="0 0 32 38" version="1.1" xmlns="http://www.w3.org/2000/svg" xmlns:xlink="http://www.w3.org/1999/xlink">
    <!-- Generator: Sketch 52.5 (67469) - http://www.bohemiancoding.com/sketch -->
    <title>25</title>
    <desc>Created with Sketch.</desc>
    <g id="Page-1" stroke="none" stroke-width="1" fill="none" fill-rule="evenodd">
        <g id="首页" transform="translate(-171.000000, -2156.000000)">
            <g id="Group-24" transform="translate(171.000000, 2156.000000)">
                <g id="25">
                    <rect id="Rectangle-Copy-76" stroke="#000000" stroke-width="2.5" fill-rule="nonzero" x="1.25" y="1.25" width="29.5" height="35.5"></rect>
                    <g id="yinle" transform="translate(5.000000, 5.000000)" fill="#000000">
                        <path d="M20.5353455,12.0516638 C20.4014915,12.0326778 20.281979,11.9377479 20.176808,11.766874 C20.071637,11.5960001 19.9903685,11.2827313 19.9330025,10.8270676 C19.8373925,10.0866141 19.593587,9.54076699 19.201586,9.18952623 C18.809585,8.83828547 18.2024615,8.58672114 17.3802156,8.43483324 C16.5197256,8.26395936 15.7596261,7.91746509 15.0999171,7.39535045 C14.4402081,6.8732358 13.8904507,6.38434663 13.4506447,5.92868294 C13.0299607,5.52997721 12.7048867,5.38758231 12.4754227,5.50149823 C12.2459587,5.61541415 12.1312267,5.82426001 12.1312267,6.12803581 L12.1312267,7.35263198 L12.1312267,10.0296562 C12.1312267,11.0928714 12.1264462,12.2415237 12.1168852,13.4756128 C12.1073242,14.709702 12.1025437,15.8773402 12.1025437,16.9785275 L12.1025437,19.8833835 L12.1025437,21.5066854 C12.1216657,21.9623491 12.0499582,22.4702242 11.8874212,23.0303109 C11.7248842,23.5903975 11.4189322,24.1172586 10.9695653,24.6108943 C10.5201983,25.1045299 9.92263579,25.5269682 9.17687782,25.8782089 C8.43111984,26.2294497 7.50370287,26.433549 6.39462691,26.490507 C5.26642894,26.547465 4.24818247,26.3481121 3.3398875,25.8924484 C2.43159253,25.4367847 1.72885905,24.8624586 1.23168707,24.1694701 C0.734515087,23.4764815 0.490709595,22.7170421 0.500270594,21.8911516 C0.509831594,21.0652612 0.868369083,20.2915822 1.57588306,19.5701147 C2.28339704,18.8486472 3.04827701,18.3455185 3.87052299,18.0607287 C4.69276896,17.7759389 5.48633193,17.6193045 6.25121191,17.5908255 C7.01609189,17.5623466 7.69970336,17.614558 8.30204634,17.7474599 C8.90438932,17.8803618 9.34897581,18.0037708 9.6358058,18.1176867 L9.6358058,10.0581351 C9.6358058,7.81778866 9.6453668,5.29265237 9.6644888,2.48272628 C9.6644888,1.93213265 9.8079038,1.48121546 10.0947338,1.12997469 C10.3815638,0.778733932 10.7640038,0.57463457 11.2420537,0.517676609 C11.6436157,0.460718647 11.9734702,0.541409093 12.2316172,0.759747945 C12.4897642,0.978086797 12.7526917,1.28186259 13.0203997,1.67107533 C13.2881077,2.06028806 13.6179622,2.50171226 14.0099632,2.99534793 C14.4019641,3.48898359 14.9325996,3.97312627 15.6018696,4.44777595 C16.1755296,4.88445365 16.6774821,5.19772244 17.1077271,5.38758231 C17.537972,5.57744218 17.939534,5.75306256 18.312413,5.91444345 C18.685292,6.07582434 19.0533905,6.27043071 19.4167085,6.49826256 C19.7800265,6.7260944 20.1815885,7.09632115 20.6213944,7.6089428 C21.0612004,8.10257847 21.3289084,8.61520012 21.4245184,9.14680776 C21.5201284,9.6784154 21.5249089,10.1625581 21.4388599,10.5992358 C21.3528109,11.0359135 21.2141764,11.3919007 21.0229564,11.6671976 C20.8317364,11.9424944 20.6691994,12.0706498 20.5353455,12.0516638 Z" id="Path"></path>
                    </g>
                </g>
            </g>
        </g>
    </g>
</svg>