<?xml version="1.0" encoding="UTF-8"?>
<svg width="32px" height="38px" viewBox="0 0 32 38" version="1.1" xmlns="http://www.w3.org/2000/svg" xmlns:xlink="http://www.w3.org/1999/xlink">
    <!-- Generator: Sketch 52.5 (67469) - http://www.bohemiancoding.com/sketch -->
    <title>26</title>
    <desc>Created with Sketch.</desc>
    <g id="Page-1" stroke="none" stroke-width="1" fill="none" fill-rule="evenodd">
        <g id="首页" transform="translate(-171.000000, -2226.000000)" fill-rule="nonzero">
            <g id="Group-25" transform="translate(171.000000, 2226.000000)">
                <g id="26">
                    <rect id="Rectangle-Copy-77" stroke="#000000" stroke-width="2.5" x="1.25" y="1.25" width="29.5" height="35.5"></rect>
                    <g id="huabanzhuti" transform="translate(6.000000, 9.000000)" fill="#000000">
                        <path d="M10,0.5 C2.69952464,0.5 0,6.8861602 0,10.4674187 C0,14.0486771 2.59694771,20.4999511 9.78984238,20.4999511 C9.78984238,20.4999511 11.5761821,20.532508 11.5761821,18.9171851 C11.5761821,17.3043666 10.7730798,17.8202682 10.7730798,16.6607419 C10.7730798,15.4987112 11.5761821,14.9828096 11.9614711,14.9828096 C12.3467601,14.9828096 14.8886665,15.1756466 16.3047285,14.6246837 C17.7182887,14.081234 20,12.3381879 20,9.37050174 C20,6.758437 17.3004754,0.5 10,0.5 Z M3.9029272,10.5024799 C3.44258194,10.5024799 2.99974981,10.3196604 2.672004,9.99158712 C2.34676007,9.66351379 2.16412309,9.22023914 2.16412309,8.75943386 C2.14660996,8.12582659 2.47185389,7.53479373 3.01726295,7.21172915 C3.562672,6.88866458 4.23817863,6.88866458 4.78358769,7.21172915 C5.32899675,7.53479373 5.65424068,8.12582659 5.63672755,8.75943386 C5.6417313,9.71861008 4.86364774,10.4999756 3.9029272,10.5024799 Z M7.17788341,6.18994352 C6.71753815,6.18994352 6.27470603,6.00712403 5.9494621,5.6790507 C5.62421816,5.35348175 5.44158119,4.9102071 5.44158119,4.44689744 C5.44158119,3.48772122 6.21966475,2.70886012 7.17788341,2.70886012 C8.13610208,2.70886012 8.91418564,3.48772122 8.91418564,4.44689744 C8.91668752,5.41108241 8.13860395,6.18994352 7.17788341,6.18994352 Z M12.7470603,6.18994352 C11.7888416,6.18994352 11.0107581,5.41108241 11.0107581,4.44689744 C10.9932449,3.81329017 11.3184889,3.22225731 11.8638979,2.89919273 C12.4091267,2.57862976 13.0849939,2.57862976 13.6302227,2.89919273 C14.1756317,3.22225731 14.5008757,3.81329017 14.4833625,4.44689744 C14.4858644,5.41108241 13.7077808,6.18994352 12.7470603,6.18994352 Z M16.0545409,10.5024799 C15.0963222,10.5024799 14.3182387,9.72361883 14.3182387,8.75943386 C14.3007255,8.12582659 14.6259695,7.53479373 15.1713785,7.21172915 C15.7167876,6.88866458 16.3922942,6.88866458 16.9377033,7.21172915 C17.4831123,7.53479373 17.8083563,8.12582659 17.7908431,8.75943386 C17.793345,9.22023914 17.610708,9.66351379 17.2854641,9.99158712 C16.9577183,10.3171561 16.517388,10.5024799 16.0545409,10.5024799 Z" id="Shape"></path>
                    </g>
                </g>
            </g>
        </g>
    </g>
</svg>