<?xml version="1.0" encoding="UTF-8"?>
<svg width="32px" height="38px" viewBox="0 0 32 38" version="1.1" xmlns="http://www.w3.org/2000/svg" xmlns:xlink="http://www.w3.org/1999/xlink">
    <!-- Generator: Sketch 52.5 (67469) - http://www.bohemiancoding.com/sketch -->
    <title>27</title>
    <desc>Created with Sketch.</desc>
    <g id="Page-1" stroke="none" stroke-width="1" fill="none" fill-rule="evenodd">
        <g id="首页" transform="translate(-171.000000, -2300.000000)" fill-rule="nonzero">
            <g id="Group-26" transform="translate(171.000000, 2300.000000)">
                <g id="27">
                    <rect id="Rectangle-Copy-78" stroke="#000000" stroke-width="2.5" x="1.25" y="1.25" width="29.5" height="35.5"></rect>
                    <g id="paobu" transform="translate(5.000000, 7.000000)" fill="#000000">
                        <path d="M20.6351267,11.5612842 C20.6351267,11.5612842 17.0077794,12.3385203 16.0036946,12.6098197 C15.0093347,12.8811191 13.7767173,10.9160316 13.4460744,10.8451515 C13.2345602,11.4610745 12.5513935,13.2697372 12.1429523,14.4966948 C12.7750637,14.4771417 16.0547498,15.4767945 16.1738785,16.0584995 C16.3100256,16.647537 17.8416803,23.0267391 17.8416803,23.0267391 C17.8416803,23.0267391 18.4908101,24.397901 16.6479621,24.8989494 C14.8026828,25.3999979 14.7200221,23.8748553 14.7200221,23.8748553 C14.7200221,23.8748553 13.4314872,18.9816895 13.3172209,18.6859487 C13.2102482,18.3902079 10.8082246,17.8940477 10.2587739,18.0431402 C9.70446075,18.1946768 8.51803615,22.3717099 7.34619875,22.65523 C5.84128722,23.0218508 1.43352536,20.3308541 1.43352536,20.3308541 C1.43352536,20.3308541 -0.307212367,19.8982415 0.0477425318,18.2557803 C0.409991025,16.6255397 2.09967359,17.070373 2.09967359,17.070373 C2.09967359,17.070373 5.22133175,18.7959349 5.58114904,18.5930714 C5.94582873,18.3877638 6.15248056,17.1974682 6.68491291,16.0438347 C6.70679369,15.608778 7.93211745,12.1503216 7.93211745,12.1503216 C7.93211745,12.1503216 8.61042168,9.84794292 8.34055871,9.70373874 C7.96858542,9.5057635 7.57959375,9.9285995 7.37537312,10.2805555 C7.1711525,10.6300673 6.36156358,12.0696651 5.00738633,13.9443195 C3.80394335,15.6136663 1.65719557,14.0640823 2.54944521,12.5047218 C3.29096058,11.2068841 5.26509331,7.49668144 6.68491291,6.79765775 C8.1144573,6.09374579 10.579692,5.70268359 12.6778158,6.19639962 C14.7856644,6.68033909 16.2638328,9.08048335 16.6771364,9.39822139 C17.0807153,9.70373874 19.9203545,8.77985429 19.9203545,8.77985429 C19.9203545,8.77985429 21.5371011,8.21525823 21.9382488,9.69885046 C22.3418276,11.1922192 20.6351267,11.5612842 20.6351267,11.5612842 Z M13.9930939,5.44604902 C12.5052008,5.85177605 10.9905645,4.98410679 10.591848,3.5029587 C10.1955627,2.02914303 11.0635004,0.504000444 12.5513935,0.0982734094 C14.0368555,-0.305009486 15.5563542,0.56999219 15.9526395,2.04380786 C16.3537871,3.52495595 15.4761247,5.04032198 13.9930939,5.44604902 Z" id="Shape"></path>
                    </g>
                </g>
            </g>
        </g>
    </g>
</svg>