<?xml version="1.0" encoding="UTF-8"?>
<svg width="160px" height="160px" viewBox="0 0 160 160" version="1.1" xmlns="http://www.w3.org/2000/svg" xmlns:xlink="http://www.w3.org/1999/xlink">
    <!-- Generator: Sketch 52.5 (67469) - http://www.bohemiancoding.com/sketch -->
    <title>299</title>
    <desc>Created with Sketch.</desc>
    <defs>
        <circle id="path-1" cx="34" cy="34" r="34"></circle>
        <filter x="-115.4%" y="-96.3%" width="330.9%" height="330.9%" filterUnits="objectBoundingBox" id="filter-2">
            <feOffset dx="0" dy="13" in="SourceAlpha" result="shadowOffsetOuter1"></feOffset>
            <feGaussianBlur stdDeviation="24" in="shadowOffsetOuter1" result="shadowBlurOuter1"></feGaussianBlur>
            <feColorMatrix values="0 0 0 0 0   0 0 0 0 0   0 0 0 0 0  0 0 0 0.25 0" type="matrix" in="shadowBlurOuter1"></feColorMatrix>
        </filter>
    </defs>
    <g id="Page-1" stroke="none" stroke-width="1" fill="none" fill-rule="evenodd">
        <g id="Group-29-Copy-2" transform="translate(80.000000, 67.000000) scale(-1, 1) translate(-80.000000, -67.000000) translate(46.000000, 33.000000)">
            <g id="299">
                <g id="Oval-Copy-19" fill-rule="nonzero" transform="translate(34.000000, 34.000000) scale(-1, 1) translate(-34.000000, -34.000000) ">
                    <use fill="black" fill-opacity="1" filter="url(#filter-2)" xlink:href="#path-1"></use>
                    <use fill="#000000" xlink:href="#path-1"></use>
                </g>
                <path d="M31.9958502,42.9999939 C31.1040414,43.0017286 30.2479803,42.6359101 29.615451,41.9827838 L16.5648091,28.4199836 C15.8117303,27.637615 15.8117303,26.369145 16.5648091,25.5867764 C17.3178878,24.8044079 18.5388697,24.8044079 19.2919485,25.5867764 L31.9997028,38.7893505 L44.7080076,25.5873482 C45.1951641,25.0812445 45.9052102,24.8835885 46.5706784,25.0688353 C47.2361467,25.2540821 47.7559365,25.7940883 47.9342482,26.4854389 C48.1125598,27.1767894 47.9223035,27.9144517 47.435147,28.4205554 L34.3839547,41.9787813 C33.7494148,42.6341654 32.8906175,43.0014083 31.9958502,42.9999939 Z" id="Path-Copy-16" fill="#FFFFFF" transform="translate(32.000000, 34.000000) scale(-1, 1) rotate(-90.000000) translate(-32.000000, -34.000000) "></path>
            </g>
        </g>
    </g>
</svg>