<?xml version="1.0" encoding="UTF-8"?>
<svg width="34px" height="34px" viewBox="0 0 34 34" version="1.1" xmlns="http://www.w3.org/2000/svg" xmlns:xlink="http://www.w3.org/1999/xlink">
    <!-- Generator: Sketch 52.5 (67469) - http://www.bohemiancoding.com/sketch -->
    <title>3</title>
    <desc>Created with Sketch.</desc>
    <g id="Page-1" stroke="none" stroke-width="1" fill="none" fill-rule="evenodd">
        <g id="首页" transform="translate(-1636.000000, -38.000000)" fill-rule="nonzero">
            <g id="3" transform="translate(1637.000000, 39.000000)">
                <circle id="Oval" stroke="#FFFFFF" cx="16" cy="16" r="16"></circle>
                <g id="renxiang" transform="translate(6.000000, 5.000000)" fill="#FFFFFF">
                    <path d="M10.0427751,12.0522696 C12.2013538,12.0522696 15.0372381,9.06145835 15.0372381,5.27808559 C15.0372381,1.49540562 13.2173123,0 10.0427751,0 C6.86823794,0 4.96364893,1.45141291 4.96364893,5.27808559 C4.96364893,9.03513202 7.88419648,12.0522696 10.0427751,12.0522696 Z M19.9157058,16.9894983 C19.6737157,16.2766086 19.3837275,15.5741109 19.1014057,15.2620052 C18.5767605,14.6828256 15.5638833,13.0214947 14.2319376,12.3020235 C13.8812388,12.1123104 13.4489437,12.2503895 13.2613105,12.6120508 L11.7400392,15.5366998 C11.5253813,15.9492613 10.9280724,15.8359888 10.8674082,15.371121 C10.8544087,15.271358 10.8717413,15.1702094 10.9164062,15.0811848 L11.2523925,14.4147126 C11.340405,14.2404835 11.318135,14.0282178 11.1960614,13.8777937 L10.5527543,13.0852322 C10.4151469,12.9156102 10.2125174,12.8177529 9.99903274,12.8178197 C9.7855481,12.8178865 9.58297526,12.9158705 9.44546615,13.0855786 L8.80382566,13.8774473 C8.6818687,14.0280582 8.65961144,14.24034 8.74749462,14.4147126 L9.08348092,15.0808384 C9.12847908,15.169863 9.14547839,15.271358 9.13247892,15.3707746 C9.07214804,15.8356424 8.47450575,15.9489149 8.25984784,15.5363534 L6.73857654,12.6117044 C6.55094335,12.2500431 6.11864826,12.111964 5.76794947,12.3016771 C4.43600378,13.0211483 1.42312665,14.6821328 0.898481367,15.2616588 C0.615826234,15.5737645 0.32583806,16.2762622 0.0841812547,16.9891519 C-0.248805166,17.970501 0.447166452,18.9999997 1.44845894,18.9999997 L18.5504282,18.9999997 C19.5527207,19.0006924 20.2490256,17.9708474 19.9157058,16.9894983 Z" id="Shape"></path>
                </g>
            </g>
        </g>
    </g>
</svg>