<?xml version="1.0" encoding="UTF-8"?>
<svg width="27px" height="27px" viewBox="0 0 27 27" version="1.1" xmlns="http://www.w3.org/2000/svg" xmlns:xlink="http://www.w3.org/1999/xlink">
    <!-- Generator: Sketch 52.5 (67469) - http://www.bohemiancoding.com/sketch -->
    <title>31</title>
    <desc>Created with Sketch.</desc>
    <g id="Page-1" stroke="none" stroke-width="1" fill="none" fill-rule="evenodd">
        <g id="首页" transform="translate(-994.000000, -1906.000000)" fill="#FFFFFF" fill-rule="nonzero">
            <g id="share_link" transform="translate(994.000000, 1906.000000)">
                <path d="M20.2499692,0 C18.4466473,0 16.7517118,0.702149746 15.4770546,1.97708316 L10.4145237,7.03951567 C9.13937291,8.31340009 8.43750002,10.0092284 8.43750002,11.8114992 C8.43750002,14.1194178 9.60130269,16.2432063 11.5511142,17.4943213 C11.8466542,17.6836346 12.190911,17.7352515 12.5086651,17.6639196 C12.8234882,17.5946549 13.1117161,17.4054342 13.299672,17.1117765 C13.4883685,16.817039 13.5403247,16.4748189 13.4703195,16.1584226 C13.4010239,15.8420572 13.2114944,15.5514231 12.9173736,15.3632514 C11.6972335,14.5805448 10.9687654,13.2529147 10.9687654,11.8114992 C10.9687654,10.6843819 11.4074321,9.62560372 12.2043937,8.82938354 L17.2671405,3.76695103 C18.0635467,2.96968186 19.1232208,2.53126246 20.25,2.53126246 C22.5760319,2.53126246 24.4687654,4.42350021 24.4687654,6.74900493 C24.4687654,7.87606049 24.0297902,8.93490037 23.2331372,9.73207698 L20.8316391,12.1340968 C20.5785835,12.3874298 20.4552644,12.7203632 20.4609413,13.0523401 C20.46668,13.3687055 20.5901842,13.6819856 20.8316391,13.9239956 C21.0787709,14.1710963 21.4026648,14.2941684 21.7265895,14.2941684 C22.050761,14.2941684 22.3746549,14.1710963 22.6212622,13.9239956 L25.0227603,11.5219758 C26.297942,10.2480296 27,8.55229383 27,6.74900493 C26.9999692,3.02759275 23.9719101,0 20.2499692,0 Z M15.4485465,9.50558609 C15.153099,9.3153781 14.8087497,9.26366869 14.491119,9.33506226 C14.1764809,9.40426527 13.8880371,9.59456579 13.7000503,9.88720534 C13.5116933,10.1818812 13.4594284,10.5241321 13.5297114,10.8405284 C13.5987293,11.1569555 13.7882279,11.447497 14.0823796,11.6356687 C15.3027973,12.418437 16.0312346,13.7460363 16.0312346,15.1875135 C16.0312346,16.3145382 15.592321,17.3733472 14.7955446,18.1705856 L9.73285952,23.2330798 C8.93639159,24.0292691 7.87684091,24.4687066 6.74996916,24.4687066 C4.42396816,24.4687066 2.53126544,22.5754199 2.53126544,20.2500386 C2.53126544,19.1229213 2.96993216,18.0641123 3.7668937,17.2669357 L6.16814496,14.8649158 C6.42120053,14.6126318 6.54473558,14.2786186 6.53902781,13.9467342 C6.53335089,13.631387 6.40953815,13.317027 6.16814496,13.0750788 C5.92098228,12.8279164 5.59708843,12.7049059 5.27341051,12.7049059 C4.94899214,12.7049059 4.62540681,12.8279164 4.37849095,13.0750788 L1.97702373,15.4770677 C0.701811178,16.7509522 0,18.4467188 0,20.2500694 C0,23.9713583 3.02808986,27 6.74996916,27 C8.55329099,27 10.2480414,26.2979428 11.5226677,25.0219604 L16.5851678,19.9594662 C17.8603803,18.6855817 18.5624383,16.9897534 18.5624383,15.1875752 C18.5624692,12.8795949 17.3984505,10.7557755 15.4485465,9.50558609 Z" id="31"></path>
            </g>
        </g>
    </g>
</svg>