<?xml version="1.0" encoding="UTF-8"?>
<svg width="21px" height="21px" viewBox="0 0 21 21" version="1.1" xmlns="http://www.w3.org/2000/svg" xmlns:xlink="http://www.w3.org/1999/xlink">
    <!-- Generator: Sketch 52.5 (67469) - http://www.bohemiancoding.com/sketch -->
    <title>31</title>
    <desc>Created with Sketch.</desc>
    <g id="Page-1" stroke="none" stroke-width="1" fill="none" fill-rule="evenodd">
        <g id="名师空间-资源列表-个人" transform="translate(-1606.000000, -1940.000000)" fill="#3DBDB6" fill-rule="nonzero">
            <g id="share_link-copy-3" transform="translate(1606.000000, 1940.000000)">
                <path d="M15.749976,0 C14.3473924,0 13.0291092,0.546116469 12.0377091,1.53773134 L8.10018513,5.47517885 C7.10840115,6.46597785 6.56250001,7.78495545 6.56250001,9.18672159 C6.56250001,10.9817694 7.46767987,12.6336049 8.9841999,13.6066944 C9.21406437,13.753938 9.48181966,13.7940845 9.72896175,13.7386041 C9.97382416,13.6847316 10.1980014,13.5375599 10.3441894,13.3091595 C10.4909533,13.0799192 10.5313637,12.813748 10.4769152,12.567662 C10.4230186,12.3216001 10.2756068,12.0955513 10.0468462,11.9491956 C9.09784831,11.3404237 8.531262,10.3078225 8.531262,9.18672157 C8.531262,8.3100748 8.87244722,7.48658067 9.4923062,6.86729831 L13.4299982,2.9298508 C14.0494252,2.30975256 14.8736162,1.96875969 15.75,1.96875969 C17.5591359,1.96875969 19.031262,3.44050016 19.031262,5.24922606 C19.031262,6.12582483 18.6898368,6.94936696 18.0702178,7.5693932 L16.2023859,9.43763086 C16.005565,9.63466761 15.9096501,9.89361579 15.9140655,10.1518201 C15.9185289,10.3978821 16.0145877,10.6415444 16.2023859,10.8297744 C16.3945996,11.0219638 16.646517,11.1176865 16.8984585,11.1176865 C17.1505919,11.1176865 17.4025094,11.0219638 17.5943151,10.8297744 L19.4621469,8.9615367 C20.4539549,7.97068972 21,6.65178409 21,5.24922606 C20.999976,2.35479436 18.644819,0 15.749976,0 Z M12.0155362,7.39323363 C11.7857437,7.24529408 11.5179164,7.20507565 11.2708703,7.26060398 C11.0261518,7.31442854 10.8018066,7.46244006 10.6555947,7.6900486 C10.5090948,7.91924092 10.4684443,8.18543609 10.5231088,8.43152206 C10.5767895,8.67763202 10.7241773,8.90360878 10.9529619,9.04996453 C11.9021757,9.65878435 12.468738,10.6913615 12.468738,11.8125105 C12.468738,12.6890853 12.1273608,13.5126034 11.5076458,14.1326777 L7.57000185,18.0701732 C6.95052679,18.6894315 6.12643182,19.0312163 5.24997601,19.0312163 C3.44086412,19.0312163 1.96876201,17.5586599 1.96876201,15.75003 C1.96876201,14.8733832 2.30994723,14.0498651 2.92980621,13.4298389 L4.79744608,11.5616012 C4.99426708,11.3653803 5.0903499,11.1055922 5.08591052,10.84746 C5.08149514,10.6021899 4.98519634,10.3576877 4.79744608,10.1695057 C4.60520844,9.97726829 4.353291,9.88159351 4.10154151,9.88159351 C3.84921611,9.88159351 3.59753863,9.97726829 3.40549296,10.1695057 L1.53768512,12.0377193 C0.545853138,13.0285183 0,14.3474479 0,15.750054 C0,18.6443898 2.355181,21 5.24997601,21 C6.65255966,21 7.97069887,20.4539555 8.96207491,19.4615247 L12.8995749,15.5240292 C13.8914069,14.5332302 14.437452,13.2142526 14.437452,11.8125585 C14.437476,10.0174627 13.5321282,8.36560315 12.0155362,7.39323363 Z" id="31"></path>
            </g>
        </g>
    </g>
</svg>