<?xml version="1.0" encoding="UTF-8"?>
<svg width="14px" height="13px" viewBox="0 0 14 13" version="1.1" xmlns="http://www.w3.org/2000/svg" xmlns:xlink="http://www.w3.org/1999/xlink">
    <!-- Generator: Sketch 52.5 (67469) - http://www.bohemiancoding.com/sketch -->
    <title>32</title>
    <desc>Created with Sketch.</desc>
    <g id="Page-1" stroke="none" stroke-width="1" fill="none" fill-rule="evenodd">
        <g id="首页" transform="translate(-469.000000, -2930.000000)" fill="#FF9901">
            <g id="Group-31" transform="translate(273.000000, 2916.000000)">
                <g id="rate" transform="translate(196.000000, 14.000000)">
                    <g id="Star-2">
                        <path d="M7,10.3212141 L4.46304221,12.2088377 C4.01995219,12.5385189 3.39349736,12.4465829 3.06381619,12.0034928 C2.87590082,11.7509354 2.81787914,11.4246354 2.9072103,11.1227788 L3.85535714,7.91892073 L1.23111567,5.86104814 C0.796519903,5.52024767 0.720483787,4.89166482 1.06128426,4.45706905 C1.24800401,4.21896018 1.53249676,4.07820203 1.83505967,4.07422909 L5.05650383,4.03192839 L6.04818599,0.954095847 C6.21755839,0.428423484 6.78100351,0.139585299 7.30667587,0.308957705 C7.61300816,0.407658417 7.8531133,0.647763558 7.95181401,0.954095847 L8.94349617,4.03192839 L12.1649403,4.07422909 C12.7171775,4.0814805 13.1589757,4.53503559 13.1517243,5.08727273 C13.1477513,5.38983564 13.0069932,5.67432839 12.7688843,5.86104814 L10.1446429,7.91892073 L11.0927897,11.1227788 C11.2495134,11.6523599 10.9472529,12.2087199 10.4176718,12.3654436 C10.1158152,12.4547748 9.78951521,12.3967531 9.53695779,12.2088377 L7,10.3212141 Z" id="32"></path>
                    </g>
                </g>
            </g>
        </g>
    </g>
</svg>