<?xml version="1.0" encoding="UTF-8"?>
<svg width="46px" height="46px" viewBox="0 0 46 46" version="1.1" xmlns="http://www.w3.org/2000/svg" xmlns:xlink="http://www.w3.org/1999/xlink">
    <!-- Generator: Sketch 52.5 (67469) - http://www.bohemiancoding.com/sketch -->
    <title>34</title>
    <desc>Created with Sketch.</desc>
    <defs>
        <linearGradient x1="0.963433656%" y1="10.8445515%" x2="100%" y2="100%" id="linearGradient-1">
            <stop stop-color="#3DBDB6" offset="0%"></stop>
            <stop stop-color="#0089CE" offset="100%"></stop>
        </linearGradient>
    </defs>
    <g id="Page-1" stroke="none" stroke-width="1" fill="none" fill-rule="evenodd">
        <g id="首页" transform="translate(-510.000000, -2993.000000)">
            <g id="Group-31" transform="translate(273.000000, 2916.000000)">
                <g id="cta" transform="translate(237.000000, 77.000000)">
                    <g id="34">
                        <circle id="Oval" fill="url(#linearGradient-1)" cx="23" cy="23" r="23"></circle>
                        <path d="M17.8413832,24 L23.5397392,29.4393398 C24.1534203,30.0251263 24.1534203,30.9748737 23.5397392,31.5606602 C22.9260582,32.1464466 21.9310847,32.1464466 21.3174036,31.5606602 L13.4602608,24.0606602 C12.8465797,23.4748737 12.8465797,22.5251263 13.4602608,21.9393398 L21.3174036,14.4393398 C21.9310847,13.8535534 22.9260582,13.8535534 23.5397392,14.4393398 C24.1534203,15.0251263 24.1534203,15.9748737 23.5397392,16.5606602 L18.8890023,21 L30.2101379,21 C31.1986514,21 32,21.6715729 32,22.5 C32,23.3284271 31.1986514,24 30.2101379,24 L17.8413832,24 Z" id="Combined-Shape" fill="#FFFFFF" fill-rule="nonzero" transform="translate(22.500000, 23.000000) rotate(-180.000000) translate(-22.500000, -23.000000) "></path>
                    </g>
                </g>
            </g>
        </g>
    </g>
</svg>