<?xml version="1.0" encoding="UTF-8"?>
<svg width="25px" height="24px" viewBox="0 0 25 24" version="1.1" xmlns="http://www.w3.org/2000/svg" xmlns:xlink="http://www.w3.org/1999/xlink">
    <!-- Generator: Sketch 52.5 (67469) - http://www.bohemiancoding.com/sketch -->
    <title>3456478</title>
    <desc>Created with Sketch.</desc>
    <g id="Page-1" stroke="none" stroke-width="1" fill="none" fill-rule="evenodd">
        <g id="名师空间-资源列表弹窗" transform="translate(-563.000000, -571.000000)" fill="#FFFFFF">
            <g id="add" transform="translate(563.000000, 571.000000)">
                <path d="M23.4379983,13.4998669 L14.0624725,13.4998669 L14.0624725,22.5000281 C14.0624725,23.3294692 13.3625333,24 12.4998744,24 C11.6377806,24 10.9378414,23.3294392 10.9378414,22.5000281 L10.9378414,13.4998669 L1.56231559,13.4998669 C0.699939231,13.4998669 0,12.827746 0,12.000135 C0,11.171744 0.699939231,10.4996231 1.56231559,10.4996231 L10.9378414,10.4996231 L10.9378414,1.49973187 C10.9378414,0.67185084 11.6377806,2.74658764e-10 12.4998744,0 C13.3627844,0 14.0627236,0.67185084 14.0627236,1.49973187 L14.0627236,10.4996231 L23.4379669,10.4996231 C24.301693,10.4996231 25,11.171744 25,12.000135 C25.0000628,12.827746 24.3017558,13.4998669 23.4379983,13.4998669 Z" id="3456478"></path>
            </g>
        </g>
    </g>
</svg>