<?xml version="1.0" encoding="UTF-8"?>
<svg width="31px" height="38px" viewBox="0 0 31 38" version="1.1" xmlns="http://www.w3.org/2000/svg" xmlns:xlink="http://www.w3.org/1999/xlink">
    <!-- Generator: Sketch 52.5 (67469) - http://www.bohemiancoding.com/sketch -->
    <title>35</title>
    <desc>Created with Sketch.</desc>
    <defs>
        <linearGradient x1="50%" y1="0%" x2="50%" y2="100%" id="linearGradient-1">
            <stop stop-color="#FAD961" offset="0%"></stop>
            <stop stop-color="#F76B1C" offset="100%"></stop>
        </linearGradient>
    </defs>
    <g id="Page-1" stroke="none" stroke-width="1" fill="none" fill-rule="evenodd">
        <g id="首页" transform="translate(-193.000000, -3471.000000)" fill="url(#linearGradient-1)" fill-rule="nonzero" stroke="url(#linearGradient-1)">
            <g id="Shape-6" transform="translate(194.000000, 3472.000000)">
                <path d="M14.3716416,36 C5.95853394,36 0,30.1080301 0,21.9960716 C0,17.6865936 2.55515868,13.0441174 2.6677538,12.8536183 C2.89119538,12.456339 3.33169241,12.2321367 3.78469742,12.2851212 C4.23808045,12.3451209 4.5998861,12.6751192 4.72449137,13.113117 C4.73349897,13.1371169 5.4240824,15.7471036 6.33084849,17.1915962 C6.93886218,18.1665912 7.56188852,18.8505877 8.25997825,19.3305853 C7.78707873,17.2650958 7.42827561,14.1556117 8.01527152,10.971128 C9.61862609,2.22617271 16.438888,0.127683417 16.7301341,0.0421838655 C17.1058829,-0.0638990764 17.5098044,0.0332080088 17.7961282,0.298460386 C18.0824521,0.563712764 18.2098398,0.958814088 18.1323187,1.34117722 C18.1248123,1.40117692 16.9943573,7.53014559 19.3813739,12.7516189 C19.5990578,13.2271165 19.8993115,13.7746136 20.2250867,14.3311108 C20.3158542,13.5379679 20.4704856,12.7534294 20.6874774,11.9851228 C21.5672206,8.88913865 23.8326345,7.83014407 23.9302169,7.78964424 C24.3081296,7.62055355 24.7487277,7.67485935 25.0741834,7.93064351 C25.4044624,8.18564222 25.5575917,8.60864004 25.4840296,9.02263795 C25.4720195,9.10063754 25.1537506,11.2096268 26.9342548,14.1976115 C28.5421132,16.8945977 29,18.6435887 29,22.0035716 C28.9924937,30.1125301 22.8493037,36 14.3716416,36 Z M3.58052492,16.7160986 C2.9337014,18.3652371 2.59826248,20.119836 2.59118912,21.8910721 C2.59118912,28.4970384 7.46430606,33.2895139 14.3761454,33.2895139 C21.3420303,33.2895139 26.3968007,28.4970384 26.3968008,21.8895722 C26.3968008,19.0335868 26.0470053,17.7150935 24.697365,15.4426051 C23.796604,13.9276129 23.3462235,12.5656198 23.1420511,11.4781254 C22.8965245,11.8815617 22.708554,12.3172623 22.5835793,12.7726188 C21.9245225,15.0976069 22.0941658,17.8275929 22.0941658,17.8575928 C22.1237464,18.3429858 21.830682,18.7901391 21.373557,18.9570871 C20.9178303,19.121618 20.4083773,18.9583126 20.1335094,18.5595892 C20.0479371,18.4455898 18.1278149,15.6946038 17.2810996,13.8346133 C15.5246156,9.99313299 15.5486359,5.83365427 15.7257856,3.43966648 C13.9452814,4.48666112 11.2054667,6.83114914 10.3212197,11.5951248 C9.46549673,16.237601 11.128902,21.0900762 11.145416,21.135076 C11.2901695,21.5149119 11.2146454,21.9434782 10.9487498,22.2510703 C10.6867883,22.5573261 10.2742914,22.6896773 9.88284932,22.5930685 C9.75073771,22.5600687 6.48397786,21.7605728 4.51581508,18.6195889 C4.15368748,18.0110597 3.84092404,17.3745276 3.58052492,16.7160986 Z" id="35"></path>
            </g>
        </g>
    </g>
</svg>