<?xml version="1.0" encoding="UTF-8"?>
<svg width="30px" height="32px" viewBox="0 0 30 32" version="1.1" xmlns="http://www.w3.org/2000/svg" xmlns:xlink="http://www.w3.org/1999/xlink">
    <!-- Generator: Sketch 52.5 (67469) - http://www.bohemiancoding.com/sketch -->
    <title>36</title>
    <desc>Created with Sketch.</desc>
    <defs>
        <linearGradient x1="50%" y1="0%" x2="50%" y2="100%" id="linearGradient-1">
            <stop stop-color="#FAD961" offset="0%"></stop>
            <stop stop-color="#F76B1C" offset="100%"></stop>
        </linearGradient>
    </defs>
    <g id="Page-1" stroke="none" stroke-width="1" fill="none" fill-rule="evenodd">
        <g id="首页" transform="translate(-1038.000000, -3476.000000)" fill="url(#linearGradient-1)">
            <g id="Group-32" transform="translate(1038.000000, 3476.000000)">
                <g id="36">
                    <path d="M20.6251683,9 C19.5897274,9 18.7503366,9.78350169 18.7503366,10.75 L18.7503366,17.0325 L11.3447515,10.0325 C10.6956011,9.43888864 9.73154148,9.26028854 8.88872202,9.57750001 C8.02193784,9.91268512 7.46899967,10.7147665 7.50134657,11.59 L7.50134657,21.25 C7.5013466,22.2164983 8.34073732,23 9.37617825,23 C10.4116192,23 11.2510099,22.2164983 11.2510099,21.25 L11.2510099,14.9675 L18.7503366,21.88 C19.397758,22.4219614 20.3218294,22.5671066 21.1236225,22.2527755 C21.9254156,21.9384444 22.4613271,21.2209345 22.5,20.41 L22.5,10.75 C22.5,9.78350169 21.6606093,9 20.6251683,9 Z" id="Path"></path>
                    <path d="M24.0625,0 L5.93750001,0 C2.93445168,-1.82387529e-16 0.5,2.41464405 0.5,5.39325844 L0.5,26.6067416 C0.5,29.5853559 2.93445168,32 5.93750001,32 L24.0625,32 C27.0655483,32 29.5,29.5853559 29.5,26.6067416 L29.5,5.39325844 C29.5,2.41464405 27.0655483,1.82387529e-16 24.0625,0 Z M25.875,26.6067416 C25.875,27.599613 25.0635161,28.4044944 24.0625,28.4044944 L5.93750001,28.4044944 C4.9364839,28.4044944 4.12500001,27.599613 4.12500001,26.6067416 L4.12500001,5.39325844 C4.12500001,4.40038698 4.9364839,3.59550562 5.93750001,3.59550562 L24.0625,3.59550562 C25.0635161,3.59550562 25.875,4.40038698 25.875,5.39325844 L25.875,26.6067416 Z" id="Shape" fill-rule="nonzero"></path>
                </g>
            </g>
        </g>
    </g>
</svg>