<?xml version="1.0" encoding="UTF-8"?>
<svg width="36px" height="38px" viewBox="0 0 36 38" version="1.1" xmlns="http://www.w3.org/2000/svg" xmlns:xlink="http://www.w3.org/1999/xlink">
    <!-- Generator: Sketch 52.5 (67469) - http://www.bohemiancoding.com/sketch -->
    <title>37</title>
    <desc>Created with Sketch.</desc>
    <defs>
        <linearGradient x1="50%" y1="0%" x2="50%" y2="100%" id="linearGradient-1">
            <stop stop-color="#FAD961" offset="0%"></stop>
            <stop stop-color="#F76B1C" offset="100%"></stop>
        </linearGradient>
    </defs>
    <g id="Page-1" stroke="none" stroke-width="1" fill="none" fill-rule="evenodd">
        <g id="首页" transform="translate(-195.000000, -4396.000000)" fill="url(#linearGradient-1)" fill-rule="nonzero">
            <g id="qianyue" transform="translate(196.000000, 4397.000000)">
                <g id="37">
                    <path d="M17.0266861,36 L4.54043556,36 C2.03282224,36 3.74642739e-16,33.9202998 0,31.3548596 L0,4.64514041 C-2.49761826e-16,2.0797002 2.03282224,4.71263721e-16 4.54043556,0 L23.8374097,0 C26.3450231,1.57087907e-16 28.3778453,2.0797002 28.3778453,4.64514041 L28.3778453,13.9354932 C28.3729391,14.5732772 27.8661812,15.0876571 27.242754,15.0876571 C26.6193267,15.0876571 26.1125688,14.5732772 26.1076627,13.9354932 L26.1076627,4.64514041 C26.107672,4.02914403 25.8684883,3.43837452 25.4427313,3.00279931 C25.0169742,2.56722409 24.4395211,2.32252471 23.8374097,2.32253424 L4.54043556,2.32253424 C3.93833028,2.32253424 3.36088618,2.56723784 2.93513675,3.00281202 C2.50938732,3.4383862 2.27020846,4.02915026 2.27021778,4.64514041 L2.27021778,31.3547877 C2.27020846,31.9707778 2.50938732,32.5615419 2.93513675,32.9971161 C3.36088618,33.4326902 3.93833028,33.6773938 4.54043556,33.6773938 L17.0267212,33.6773938 C17.6511592,33.6809488 18.155531,34.1998312 18.155531,34.8386789 C18.155531,35.4775267 17.6511592,35.996409 17.0267212,35.999964 L17.0266861,36 Z M26.9895975,20.2529129 L32,22.9784311 L30.9329959,25.0293126 L25.9225934,22.3025716 L26.9895975,20.2529129 Z" id="Shape" stroke="url(#linearGradient-1)"></path>
                    <path d="M23.25244,37 C22.8495744,36.9997583 22.4529305,36.8990092 22.0973488,36.7066023 C21.2118339,36.2321869 20.7063609,35.251734 20.8267198,34.2419961 C21.2425484,30.9089719 21.4042654,29.81748 21.5197674,29.371514 L21.6353051,29.0311611 L27.5956933,17.635351 C27.8827273,17.0834638 28.3742996,16.6704675 28.9617281,16.4876717 C29.5491565,16.3048759 30.184054,16.3673377 30.7260507,16.6612474 L33.7870854,18.316057 C34.3262777,18.6117483 34.7277714,19.1129566 34.903239,19.7094175 C35.0787066,20.3058785 35.0137741,20.948731 34.7227265,21.4965493 L28.7507845,32.8923593 C28.6352468,33.1153241 28.4851193,33.3970194 24.7656267,36.4132046 C24.3474634,36.7879158 23.8100279,36.9963317 23.2524758,37 L23.25244,37 Z M23.7375912,30.0170036 C23.6451968,30.4864472 23.356424,32.6224392 23.1253843,34.5236913 C23.1168195,34.5684816 23.1411937,34.6130424 23.1831532,34.6293043 C23.2226138,34.6651698 23.282302,34.6651698 23.3217627,34.6293043 C24.7541087,33.4556771 26.4174587,32.0708239 26.787108,31.6835157 L32.6897273,20.4050938 L29.6402463,18.7385453 L23.7375912,30.0170036 Z M8.15509125,8 L20.8613811,8 C21.631442,8 22.0164724,8.39119695 22.0164724,9.17359086 C22.0164724,9.95600899 21.63143,10.3472181 20.8613454,10.3472181 L8.15509125,10.3472181 C7.38503042,10.3472181 7,9.95600899 7,9.17359086 C7,8.39119695 7.38503042,8 8.15509125,8 Z M8.15509125,15.6284496 L20.8613811,15.6284496 C21.631442,15.6284496 22.0164724,16.0196587 22.0164724,16.8020768 C22.0164724,17.584495 21.63143,17.975704 20.8613454,17.975704 L8.15509125,17.975704 C7.38503042,17.975704 7,17.584495 7,16.8020768 C7,16.0196829 7.38503042,15.628486 8.15509125,15.628486 L8.15509125,15.6284496 Z M8.15509125,23.2569719 L20.8613811,23.2569719 C21.631442,23.2569719 22.0164724,23.648181 22.0164724,24.4305991 C22.0164724,25.212993 21.63143,25.60419 20.8613454,25.60419 L8.15509125,25.60419 C7.38503042,25.60419 7,25.212993 7,24.4305991 C7,23.648181 7.38503042,23.2569719 8.15509125,23.2569719 Z" id="Shape"></path>
                </g>
            </g>
        </g>
    </g>
</svg>