<?xml version="1.0" encoding="UTF-8"?>
<svg width="64px" height="64px" viewBox="0 0 64 64" version="1.1" xmlns="http://www.w3.org/2000/svg" xmlns:xlink="http://www.w3.org/1999/xlink">
    <!-- Generator: Sketch 52.5 (67469) - http://www.bohemiancoding.com/sketch -->
    <title>4</title>
    <desc>Created with Sketch.</desc>
    <g id="Page-1" stroke="none" stroke-width="1" fill="none" fill-rule="evenodd">
        <g id="首页" transform="translate(-233.000000, -862.000000)" fill="#FFFFFF" fill-rule="nonzero">
            <g id="Shape-2" transform="translate(233.000000, 862.000000)">
                <path d="M17,4 C9.82008368,4 4,9.82008368 4,17 C4,24.1799163 9.82008368,30 17,30 C20.5899582,30 29.9891213,29.9945607 29.9891213,29.9945607 C29.9891213,29.9945607 30,20.5899582 30,17 C30,9.82008368 24.1799163,4 17,4 Z M47,4 C39.8200837,4 34,9.82008368 34,17 C34,20.5899582 34.0108787,29.9945607 34.0108787,29.9945607 C34.0108787,29.9945607 43.4100418,30 47,30 C54.1799163,30 60,24.1799163 60,17 C60,9.82008368 54.1799163,4 47,4 Z M17,34 C9.82008368,34 4,39.8200837 4,47 C4,54.1799163 9.82008368,60 17,60 C24.1799163,60 30,54.1799163 30,47 C30,43.4100418 29.9891213,34.0054393 29.9891213,34.0054393 C29.9891213,34.0054393 20.5899582,34 17,34 Z M47,60 C43.5297071,60 40.2606695,58.64589 37.8075314,56.193265 C35.3543933,53.74064 34,50.4722861 34,47.0027191 C34,43.9301401 34.0108787,35.832671 34.0108787,35.7510981 C34.0108787,34.788538 34.7887029,34.0108764 35.7514644,34.0108764 C36.7142259,34.0108764 37.4920502,34.7939762 37.4920502,35.7510981 C37.4920502,35.832671 37.4811715,43.9301401 37.4811715,46.9972809 C37.4811715,52.245137 41.751046,56.5141184 47,56.5141184 C52.248954,56.5141184 56.5188285,52.245137 56.5188285,46.9972809 C56.5188285,41.7494248 52.248954,37.4804434 47,37.4804434 L44.3728033,37.4804434 C43.4100418,37.4804434 42.6322176,36.7027818 42.6322176,35.7402217 C42.6322176,34.7776616 43.4100418,34 44.3728033,34 L47,34 C50.4702929,34 53.7393305,35.35411 56.1924686,37.806735 C58.6456067,40.25936 60,43.5277139 60,46.9972809 C60,50.4668479 58.6456067,53.7352018 56.1924686,56.1878268 C53.7393305,58.64589 50.4702929,60 47,60 Z" id="Shape"></path>
            </g>
        </g>
    </g>
</svg>