<?xml version="1.0" encoding="UTF-8"?>
<svg width="32px" height="33px" viewBox="0 0 32 33" version="1.1" xmlns="http://www.w3.org/2000/svg" xmlns:xlink="http://www.w3.org/1999/xlink">
    <!-- Generator: Sketch 52.5 (67469) - http://www.bohemiancoding.com/sketch -->
    <title>45</title>
    <desc>Created with Sketch.</desc>
    <g id="Page-1" stroke="none" stroke-width="1" fill="none" fill-rule="evenodd">
        <g id="直播课程" transform="translate(-306.000000, -399.000000)" fill="#30D2C9" fill-rule="nonzero">
            <g id="Shape-2" transform="translate(306.000000, 399.000000)">
                <path d="M28.5802733,15.3531688 L31.0041166,12.9051766 C32.3319611,11.5641026 32.3319611,9.35026609 31.0041166,8.00919207 L24.0698172,1.00580552 C22.7419727,-0.335268505 20.5499753,-0.335268505 19.2221307,1.00580552 L16.7982875,3.45379777 L28.5802733,15.3531688 Z M18.5687469,7.86018384 L24.1962786,13.5437833 L27.2735057,16.6516691 L15.2807509,28.763909 C12.4353697,29.3812288 11.8241396,27.9762941 12.2035238,25.6560232 C9.3159888,25.2515723 7.16614523,23.9530721 6.66029969,20.6323174 L14.7538284,12.7135946 L14.016137,11.9685535 L5.71183929,20.1001451 C3.62522641,20.2704403 3.18261156,18.9080793 3.49876503,16.864538 L15.4915198,4.75229802 L18.5687469,7.86018384 Z M1.45430594,24.1872279 L0,30.6158684 L2.36061255,33 L8.72583567,31.5312046 L1.45430594,24.1872279 Z" id="45"></path>
            </g>
        </g>
    </g>
</svg>