<?xml version="1.0" encoding="UTF-8"?>
<svg width="54px" height="54px" viewBox="0 0 54 54" version="1.1" xmlns="http://www.w3.org/2000/svg" xmlns:xlink="http://www.w3.org/1999/xlink">
    <!-- Generator: Sketch 52.5 (67469) - http://www.bohemiancoding.com/sketch -->
    <title>46</title>
    <desc>Created with Sketch.</desc>
    <g id="Page-1" stroke="none" stroke-width="1" fill="none" fill-rule="evenodd">
        <g id="直播课程" transform="translate(-352.000000, -807.000000)" fill="#FFFFFF">
            <g id="Group" transform="translate(195.000000, 714.000000)">
                <g id="Combined-Shape-Copy-2" transform="translate(157.000000, 93.000000)">
                    <path d="M54,27 C54,41.9111053 41.9111053,54 27,54 C12.0888947,54 3.55271368e-15,41.9111053 3.55271368e-15,27 C3.55271368e-15,12.0888947 12.0888947,3.55271368e-15 27,3.55271368e-15 C41.9111053,3.55271368e-15 54,12.0888947 54,27 Z M24.6441899,17.1399863 C22.8059651,15.9145031 21.3157895,16.7051745 21.3157895,18.9205583 L21.3157895,33.658389 C21.3157895,35.867255 22.7992678,36.6689092 24.6441899,35.4389611 L35.0400206,28.5084073 C36.8782454,27.2829241 36.8849428,25.3004882 35.0400206,24.07054 L24.6441899,17.1399863 Z" id="46"></path>
                </g>
            </g>
        </g>
    </g>
</svg>