<?xml version="1.0" encoding="UTF-8"?>
<svg width="18px" height="32px" viewBox="0 0 18 32" version="1.1" xmlns="http://www.w3.org/2000/svg" xmlns:xlink="http://www.w3.org/1999/xlink">
    <!-- Generator: Sketch 52.5 (67469) - http://www.bohemiancoding.com/sketch -->
    <title>48</title>
    <desc>Created with Sketch.</desc>
    <g id="Page-1" stroke="none" stroke-width="1" fill="none" fill-rule="evenodd">
        <g id="微课资源-教学课件" transform="translate(-703.000000, -3435.000000)" fill="#000000">
            <path d="M711.99585,3459.99999 C711.104041,3460.00173 710.24798,3459.63591 709.615451,3458.98278 L696.564809,3445.41998 C695.81173,3444.63762 695.81173,3443.36914 696.564809,3442.58678 C697.317888,3441.80441 698.53887,3441.80441 699.291949,3442.58678 L711.999703,3455.78935 L724.708008,3442.58735 C725.195164,3442.08124 725.90521,3441.88359 726.570678,3442.06884 C727.236147,3442.25408 727.755936,3442.79409 727.934248,3443.48544 C728.11256,3444.17679 727.922304,3444.91445 727.435147,3445.42056 L714.383955,3458.97878 C713.749415,3459.63417 712.890617,3460.00141 711.99585,3459.99999 Z" id="48" transform="translate(712.000000, 3451.000000) scale(-1, 1) rotate(-90.000000) translate(-712.000000, -3451.000000) "></path>
        </g>
    </g>
</svg>