<?xml version="1.0" encoding="UTF-8"?>
<svg width="18px" height="32px" viewBox="0 0 18 32" version="1.1" xmlns="http://www.w3.org/2000/svg" xmlns:xlink="http://www.w3.org/1999/xlink">
    <!-- Generator: Sketch 52.5 (67469) - http://www.bohemiancoding.com/sketch -->
    <title>49</title>
    <desc>Created with Sketch.</desc>
    <g id="Page-1" stroke="none" stroke-width="1" fill="none" fill-rule="evenodd">
        <g id="微课资源-教学课件" transform="translate(-1200.000000, -3435.000000)" fill="#FFFFFF">
            <path d="M1208.99585,3459.99999 C1208.10404,3460.00173 1207.24798,3459.63591 1206.61545,3458.98278 L1193.56481,3445.41998 C1192.81173,3444.63762 1192.81173,3443.36914 1193.56481,3442.58678 C1194.31789,3441.80441 1195.53887,3441.80441 1196.29195,3442.58678 L1208.9997,3455.78935 L1221.70801,3442.58735 C1222.19516,3442.08124 1222.90521,3441.88359 1223.57068,3442.06884 C1224.23615,3442.25408 1224.75594,3442.79409 1224.93425,3443.48544 C1225.11256,3444.17679 1224.9223,3444.91445 1224.43515,3445.42056 L1211.38395,3458.97878 C1210.74941,3459.63417 1209.89062,3460.00141 1208.99585,3459.99999 Z" id="49" transform="translate(1209.000000, 3451.000000) rotate(-90.000000) translate(-1209.000000, -3451.000000) "></path>
        </g>
    </g>
</svg>