<?xml version="1.0" encoding="UTF-8"?>
<svg width="18px" height="32px" viewBox="0 0 18 32" version="1.1" xmlns="http://www.w3.org/2000/svg" xmlns:xlink="http://www.w3.org/1999/xlink">
    <!-- Generator: Sketch 52.5 (67469) - http://www.bohemiancoding.com/sketch -->
    <title>490</title>
    <desc>Created with Sketch.</desc>
    <g id="Page-1" stroke="none" stroke-width="1" fill="none" fill-rule="evenodd">
        <g id="课件分享" transform="translate(-703.000000, -2512.000000)" fill="#FFFFFF">
            <g id="Path-Copy-18" transform="translate(712.000000, 2528.000000) scale(-1, 1) translate(-712.000000, -2528.000000) translate(703.000000, 2512.000000)">
                <path d="M8.99585017,24.9999939 C8.10404144,25.0017286 7.24798031,24.6359101 6.61545095,23.9827838 L-6.43519095,10.4199836 C-7.18826969,9.63761505 -7.18826968,8.36914499 -6.43519093,7.58677643 C-5.68211217,6.80440787 -4.46113027,6.80440786 -3.7080515,7.58677641 L8.99970284,20.7893505 L21.7080076,7.58734819 C22.1951641,7.08124447 22.9052102,6.88358847 23.5706784,7.06883529 C24.2361467,7.25408211 24.7559365,7.79408835 24.9342482,8.48543889 C25.1125598,9.17678944 24.9223035,9.91445168 24.435147,10.4205554 L11.3839547,23.9787813 C10.7494148,24.6341654 9.89061745,25.0014083 8.99585017,24.9999939 Z" id="490" transform="translate(9.000000, 16.000000) rotate(-90.000000) translate(-9.000000, -16.000000) "></path>
            </g>
        </g>
    </g>
</svg>