<?xml version="1.0" encoding="UTF-8"?>
<svg width="17px" height="10px" viewBox="0 0 17 10" version="1.1" xmlns="http://www.w3.org/2000/svg" xmlns:xlink="http://www.w3.org/1999/xlink">
    <!-- Generator: Sketch 52.5 (67469) - http://www.bohemiancoding.com/sketch -->
    <title>49</title>
    <desc>Created with Sketch.</desc>
    <g id="Page-1" stroke="none" stroke-width="1" fill="none" fill-rule="evenodd">
        <g id="名师空间-留言板" transform="translate(-657.000000, -975.000000)" fill="#3DBDB6">
            <g id="Path-Copy-16" transform="translate(666.000000, 979.500000) rotate(-270.000000) translate(-666.000000, -979.500000) translate(661.000000, 971.000000)">
                <path d="M5.1434329,13.1552704 C4.69752853,13.1561377 4.26949797,12.9732285 3.95323329,12.6466654 L-2.57208766,5.86526525 C-2.94862703,5.47408096 -2.94862703,4.83984593 -2.57208765,4.44866165 C-2.19554827,4.05747737 -1.58505732,4.05747737 -1.20851794,4.44866164 L5.14535923,11.0499487 L11.4995116,4.44894753 C11.7430899,4.19589567 12.0981129,4.09706767 12.430847,4.18969108 C12.7635811,4.28231449 13.0234761,4.55231761 13.1126319,4.89799288 C13.2017877,5.24366816 13.1066596,5.61249928 12.8630813,5.86555114 L6.33748517,12.6446641 C6.02021521,12.9723561 5.59081654,13.1559776 5.1434329,13.1552704 Z" id="49" transform="translate(5.145508, 8.655273) rotate(-90.000000) translate(-5.145508, -8.655273) "></path>
            </g>
        </g>
    </g>
</svg>