<?xml version="1.0" encoding="UTF-8"?>
<svg width="64px" height="64px" viewBox="0 0 64 64" version="1.1" xmlns="http://www.w3.org/2000/svg" xmlns:xlink="http://www.w3.org/1999/xlink">
    <!-- Generator: Sketch 52.5 (67469) - http://www.bohemiancoding.com/sketch -->
    <title>5</title>
    <desc>Created with Sketch.</desc>
    <g id="Page-1" stroke="none" stroke-width="1" fill="none" fill-rule="evenodd">
        <g id="首页" transform="translate(-541.000000, -865.000000)" fill="#3DBDB6" fill-rule="nonzero">
            <g id="Group" transform="translate(541.000000, 865.000000)">
                <path d="M7,46 L18,46 L18,57 L7,57 L7,46 Z M20,46 L31,46 L31,57 L20,57 L20,46 Z M20,33 L31,33 L31,44 L20,44 L20,33 Z M13,7 L24,7 L24,18 L13,18 L13,7 Z M33,46 L44,46 L44,57 L33,57 L33,46 Z M33,33 L44,33 L44,44 L33,44 L33,33 Z M46,26 L57,26 L57,37 L46,37 L46,26 Z M33,20 L44,20 L44,31 L33,31 L33,20 Z M46,46 L57,46 L57,57 L46,57 L46,46 Z" id="Combined-Shape"></path>
            </g>
        </g>
    </g>
</svg>