<?xml version="1.0" encoding="UTF-8"?>
<svg width="33px" height="33px" viewBox="0 0 33 33" version="1.1" xmlns="http://www.w3.org/2000/svg" xmlns:xlink="http://www.w3.org/1999/xlink">
    <!-- Generator: Sketch 52.5 (67469) - http://www.bohemiancoding.com/sketch -->
    <title>5</title>
    <desc>Created with Sketch.</desc>
    <g id="Page-1" stroke="none" stroke-width="1" fill="none" fill-rule="evenodd">
        <g id="微课资源-课程评论" transform="translate(-728.000000, -470.000000)" fill="#FFFFFF" fill-rule="nonzero">
            <g id="Group" transform="translate(728.000000, 470.000000)">
                <path d="M3.609375,23.71875 L9.28125,23.71875 L9.28125,29.390625 L3.609375,29.390625 L3.609375,23.71875 Z M10.3125,23.71875 L15.984375,23.71875 L15.984375,29.390625 L10.3125,29.390625 L10.3125,23.71875 Z M10.3125,17.015625 L15.984375,17.015625 L15.984375,22.6875 L10.3125,22.6875 L10.3125,17.015625 Z M6.703125,3.609375 L12.375,3.609375 L12.375,9.28125 L6.703125,9.28125 L6.703125,3.609375 Z M17.015625,23.71875 L22.6875,23.71875 L22.6875,29.390625 L17.015625,29.390625 L17.015625,23.71875 Z M17.015625,17.015625 L22.6875,17.015625 L22.6875,22.6875 L17.015625,22.6875 L17.015625,17.015625 Z M23.71875,13.40625 L29.390625,13.40625 L29.390625,19.078125 L23.71875,19.078125 L23.71875,13.40625 Z M17.015625,10.3125 L22.6875,10.3125 L22.6875,15.984375 L17.015625,15.984375 L17.015625,10.3125 Z M23.71875,23.71875 L29.390625,23.71875 L29.390625,29.390625 L23.71875,29.390625 L23.71875,23.71875 Z" id="Combined-Shape"></path>
            </g>
        </g>
    </g>
</svg>