<?xml version="1.0" encoding="UTF-8"?>
<svg width="33px" height="33px" viewBox="0 0 33 33" version="1.1" xmlns="http://www.w3.org/2000/svg" xmlns:xlink="http://www.w3.org/1999/xlink">
    <!-- Generator: Sketch 52.5 (67469) - http://www.bohemiancoding.com/sketch -->
    <title>555</title>
    <desc>Created with Sketch.</desc>
    <g id="Page-1" stroke="none" stroke-width="1" fill="none" fill-rule="evenodd">
        <g id="名师空间-" transform="translate(-439.000000, -470.000000)" fill="#FFFFFF">
            <g id="Groupd" transform="translate(439.000000, 470.000000)">
                <g id="shouye" transform="translate(1.000000, 2.000000)">
                    <path d="M30.408554,12.2366192 L16.6390834,0.420248339 C16.6366496,0.41816606 16.6341085,0.416266419 16.631639,0.414147583 C16.6174303,0.402019111 16.6029354,0.390365585 16.5884046,0.378785101 C16.5827498,0.374255193 16.5771308,0.369688765 16.5713685,0.365268454 C16.553903,0.351715252 16.5362227,0.338636995 16.5183635,0.325814418 C16.5155361,0.323768659 16.5127087,0.3217229 16.5098812,0.319713662 C16.4895167,0.305283716 16.4688658,0.291401757 16.448036,0.277921631 C16.4477855,0.277812034 16.4475708,0.277665916 16.447356,0.277519798 C15.8056404,-0.135943788 14.9478961,-0.0873203393 14.3579328,0.422805601 L0.591504416,12.2366192 C-0.128269306,12.853746 -0.201066276,13.9270416 0.427621774,14.6330494 C1.05630983,15.3385824 2.1503043,15.4115358 2.86964857,14.7939707 L4.05605297,13.7758376 L4.05605297,23.7430934 C4.05605297,26.0898407 6.00199383,28 8.39312715,28 L10.9780636,28 C11.9336222,28 12.7083336,27.2397063 12.7083336,26.30176 L12.7083336,18.2838254 C12.7083336,17.8102675 13.1012726,17.4242391 13.5835077,17.4242391 L17.4146537,17.4242391 C17.8978195,17.4242391 18.2916532,17.8102675 18.2916532,18.2838254 L18.2916532,26.1025537 C18.2916532,26.2187604 18.3037144,26.3345653 18.3282664,26.4489454 L18.3702123,26.6481152 C18.5376382,27.4352595 19.2449212,27.9999635 20.0643344,27.9999635 L22.6068238,27.9999635 C24.9984224,27.9999635 26.9443275,26.0898042 26.9443275,23.7430569 L26.9443275,13.7761665 L28.1303024,14.7939342 C28.4584972,15.0751172 28.8647859,15.2132428 29.2689271,15.2132428 C29.7502675,15.2132428 30.2303195,15.0168129 30.5723292,14.633013 C31.2010531,13.9270416 31.1282919,12.8537094 30.408554,12.2366192 Z" id="Path"></path>
                </g>
            </g>
        </g>
    </g>
</svg>