<?xml version="1.0" encoding="UTF-8"?>
<svg width="64px" height="64px" viewBox="0 0 64 64" version="1.1" xmlns="http://www.w3.org/2000/svg" xmlns:xlink="http://www.w3.org/1999/xlink">
    <!-- Generator: Sketch 52.5 (67469) - http://www.bohemiancoding.com/sketch -->
    <title>6</title>
    <desc>Created with Sketch.</desc>
    <g id="Page-1" stroke="none" stroke-width="1" fill="none" fill-rule="evenodd">
        <g id="首页" transform="translate(-818.000000, -865.000000)" fill="#3DBDB6" fill-rule="nonzero">
            <g id="Shape-3" transform="translate(818.000000, 865.000000)">
                <path d="M54.1538462,13.5384615 L48.6153846,13.5384615 L48.6153846,9.84615385 C48.6153846,8.82655769 47.7888269,8 46.7692308,8 L11.6923077,8 C9.65311538,8 8,9.65311538 8,11.6923077 L8,52.3076923 C8,54.3469423 9.65311538,56 11.6923077,56 L54.1538462,56 C55.1734423,56 56,55.1734423 56,54.1538462 L56,15.3846154 C56,14.3650192 55.1734423,13.5384615 54.1538462,13.5384615 Z M10,12 C10,10.8954375 10.8282797,10 11.85,10 L46.075,10 C46.5858891,10 47,10.44775 47,11 L47,14 L11.85,14 C10.8282797,14 10,13.1045625 10,12 Z M31.0555556,47 L15.9444444,47 C15.422875,47 15,46.5523125 15,46 C15,45.4476875 15.422875,45 15.9444444,45 L31.0555556,45 C31.577125,45 32,45.4476875 32,46 C32,46.5523125 31.577125,47 31.0555556,47 Z M38.0769231,39 L15.9230769,39 C15.4133077,39 15,38.5523125 15,38 C15,37.4476875 15.4133077,37 15.9230769,37 L38.0769231,37 C38.58675,37 39,37.4476875 39,38 C39,38.5523125 38.58675,39 38.0769231,39 Z M15,31 C15,30.44775 15.422875,30 15.9444444,30 L31.0555556,30 C31.577125,30 32,30.44775 32,31 C32,31.55225 31.577125,32 31.0555556,32 L15.9444444,32 C15.422875,32 15,31.55225 15,31 Z M48.0833333,25 L16.9166667,25 C16.4104375,25 16,24.55225 16,24 C16,23.44775 16.4104375,23 16.9166667,23 L48.0833333,23 C48.5896198,23 49,23.44775 49,24 C49,24.55225 48.5896198,25 48.0833333,25 Z" id="Shape"></path>
            </g>
        </g>
    </g>
</svg>