<?xml version="1.0" encoding="UTF-8"?>
<svg width="23px" height="23px" viewBox="0 0 23 23" version="1.1" xmlns="http://www.w3.org/2000/svg" xmlns:xlink="http://www.w3.org/1999/xlink">
    <!-- Generator: Sketch 52.5 (67469) - http://www.bohemiancoding.com/sketch -->
    <title>64563</title>
    <desc>Created with Sketch.</desc>
    <g id="Page-1" stroke="none" stroke-width="1" fill="none" fill-rule="evenodd">
        <g id="名师空间-相册列表" transform="translate(-209.000000, -652.000000)" fill="#FFFFFF" fill-rule="nonzero">
            <g id="Shape-3-Copy" transform="translate(209.000000, 652.000000)">
                <g id="tupian" transform="translate(2.000000, 3.000000)">
                    <path d="M7.13258786,8.50754214 C6.79872205,8.50754214 6.48761981,8.44469091 6.19928115,8.31898845 C5.91094248,8.19328599 5.66054312,8.02233065 5.44808306,7.80612244 C5.235623,7.58991422 5.0661608,7.33850932 4.93969647,7.05190771 C4.81323214,6.7653061 4.74999998,6.46110616 4.74999998,6.13930788 C4.74999998,5.8175096 4.81323214,5.51330966 4.93969647,5.22670806 C5.0661608,4.94010645 5.235623,4.69121559 5.44808306,4.48003547 C5.66054312,4.26885535 5.91094248,4.10041406 6.19928115,3.9747116 C6.48761981,3.84900914 6.79872205,3.78615791 7.13258786,3.78615791 C7.45633653,3.78615791 7.76238019,3.84900914 8.05071886,3.9747116 C8.33905752,4.10041406 8.58945689,4.26885535 8.80191695,4.48003547 C9.01437701,4.69121559 9.1838392,4.94010645 9.31030353,5.22670806 C9.43676786,5.51330966 9.50000003,5.8175096 9.50000003,6.13930788 C9.50000003,6.46110616 9.43676786,6.7653061 9.31030353,7.05190771 C9.1838392,7.33850932 9.01437701,7.58991422 8.80191695,7.80612244 C8.58945689,8.02233065 8.33905752,8.19328599 8.05071886,8.31898845 C7.76238019,8.44469091 7.45633653,8.50754214 7.13258786,8.50754214 Z M19,17 L0,17 L0,0 L19,0 L19,1.88553682 L19,17 Z M17.1030351,1.88553682 L1.91214057,1.88553682 L1.91214057,13.5456965 C2.09424921,13.2842354 2.29659212,13.0227743 2.51916933,12.7613132 C2.74174654,12.4998521 2.97444089,12.2635315 3.21725239,12.0523514 C3.46006389,11.8411713 3.71046326,11.6677019 3.96845048,11.5319432 C4.22643771,11.3961846 4.48695421,11.3283052 4.75,11.3283052 C5.06363152,11.3283052 5.33426518,11.3509317 5.56190095,11.3961846 C5.78953672,11.4414374 5.99187964,11.4992606 6.16892971,11.569654 C6.34597977,11.6400473 6.51038339,11.7179829 6.66214057,11.8034605 C6.81389775,11.8889382 6.97830137,11.9668737 7.15535143,12.0372671 C7.3324015,12.1076605 7.53221513,12.1654836 7.75479232,12.2107365 C7.97736952,12.2559894 8.24547389,12.2786158 8.55910542,12.2786158 C8.87273696,12.2786158 9.14337061,12.185596 9.37100638,11.9995563 C9.59864214,11.8135167 9.80857292,11.5797101 10.0007987,11.2981366 C10.1930245,11.0165631 10.3852503,10.7148773 10.577476,10.393079 C10.7697018,10.0712807 10.9872204,9.76959481 11.2300319,9.48802131 C11.4728435,9.20644781 11.7611821,8.97264124 12.0950479,8.78660161 C12.4289137,8.60056197 12.8335995,8.50754216 13.3091054,8.50754216 C13.7137913,8.50754216 14.1033014,8.63073056 14.4776358,8.87710738 C14.8519702,9.1234842 15.1984824,9.44276843 15.5171725,9.83496008 C15.8358626,10.2271517 16.1292598,10.6645963 16.3973642,11.1472937 C16.6654686,11.6299911 16.9006922,12.1026324 17.1030351,12.5652174 L17.1030351,1.88553682 Z" id="Shape"></path>
                </g>
            </g>
        </g>
    </g>
</svg>