<?xml version="1.0" encoding="UTF-8"?>
<svg width="33px" height="33px" viewBox="0 0 33 33" version="1.1" xmlns="http://www.w3.org/2000/svg" xmlns:xlink="http://www.w3.org/1999/xlink">
    <!-- Generator: Sketch 52.5 (67469) - http://www.bohemiancoding.com/sketch -->
    <title>6</title>
    <desc>Created with Sketch.</desc>
    <g id="Page-1" stroke="none" stroke-width="1" fill="none" fill-rule="evenodd">
        <g id="微课资源-课程评论" transform="translate(-946.000000, -470.000000)" fill="#FFFFFF" fill-rule="nonzero">
            <g id="Shape-3" transform="translate(946.000000, 470.000000)">
                <path d="M27.9230769,6.98076923 L25.0673077,6.98076923 L25.0673077,5.07692308 C25.0673077,4.55119381 24.6411139,4.125 24.1153846,4.125 L6.02884615,4.125 C4.97738762,4.125 4.125,4.97738762 4.125,6.02884615 L4.125,26.9711538 C4.125,28.0226421 4.97738762,28.875 6.02884615,28.875 L27.9230769,28.875 C28.4488062,28.875 28.875,28.4488062 28.875,27.9230769 L28.875,7.93269231 C28.875,7.40696304 28.4488062,6.98076923 27.9230769,6.98076923 Z M5.15625,6.1875 C5.15625,5.61795996 5.58333171,5.15625 6.11015625,5.15625 L23.7574219,5.15625 C24.020849,5.15625 24.234375,5.38712109 24.234375,5.671875 L24.234375,7.21875 L6.11015625,7.21875 C5.58333171,7.21875 5.15625,6.75704004 5.15625,6.1875 Z M16.0130208,24.234375 L8.22135417,24.234375 C7.95241992,24.234375 7.734375,24.0035361 7.734375,23.71875 C7.734375,23.4339639 7.95241992,23.203125 8.22135417,23.203125 L16.0130208,23.203125 C16.2819551,23.203125 16.5,23.4339639 16.5,23.71875 C16.5,24.0035361 16.2819551,24.234375 16.0130208,24.234375 Z M19.6334135,20.109375 L8.21033654,20.109375 C7.94748678,20.109375 7.734375,19.8785361 7.734375,19.59375 C7.734375,19.3089639 7.94748678,19.078125 8.21033654,19.078125 L19.6334135,19.078125 C19.896293,19.078125 20.109375,19.3089639 20.109375,19.59375 C20.109375,19.8785361 19.896293,20.109375 19.6334135,20.109375 Z M7.734375,15.984375 C7.734375,15.6996211 7.95241992,15.46875 8.22135417,15.46875 L16.0130208,15.46875 C16.2819551,15.46875 16.5,15.6996211 16.5,15.984375 C16.5,16.2691289 16.2819551,16.5 16.0130208,16.5 L8.22135417,16.5 C7.95241992,16.5 7.734375,16.2691289 7.734375,15.984375 Z M24.7929687,12.890625 L8.72265625,12.890625 C8.46163184,12.890625 8.25,12.6597539 8.25,12.375 C8.25,12.0902461 8.46163184,11.859375 8.72265625,11.859375 L24.7929687,11.859375 C25.0540227,11.859375 25.265625,12.0902461 25.265625,12.375 C25.265625,12.6597539 25.0540227,12.890625 24.7929687,12.890625 Z" id="Shape"></path>
            </g>
        </g>
    </g>
</svg>