<?xml version="1.0" encoding="UTF-8"?>
<svg width="64px" height="64px" viewBox="0 0 64 64" version="1.1" xmlns="http://www.w3.org/2000/svg" xmlns:xlink="http://www.w3.org/1999/xlink">
    <!-- Generator: Sketch 52.5 (67469) - http://www.bohemiancoding.com/sketch -->
    <title>7</title>
    <desc>Created with Sketch.</desc>
    <g id="Page-1" stroke="none" stroke-width="1" fill="none" fill-rule="evenodd">
        <g id="首页" transform="translate(-1095.000000, -860.000000)" fill="#3DBDB6" fill-rule="nonzero">
            <g id="Shape-4" transform="translate(1095.000000, 860.000000)">
                <path d="M26.8415512,4.41787776 C25.0828134,7.67273369 26.169251,11.7980903 29.2752031,13.6587974 C32.3800022,15.5235812 36.3460846,14.4096926 38.1336962,11.1708575 C39.9213078,7.93202236 38.8535164,3.79472175 35.7487174,1.92993785 C34.2542555,1.01438496 32.4702724,0.762191061 30.7961264,1.22981169 C29.1219804,1.69743233 27.6974946,2.84581224 26.8415512,4.41787776 Z M62.0812335,50.9990222 C63.5909905,48.3541726 63.2110261,44.978273 61.1552911,42.7722296 C59.0995562,40.5661861 55.8820593,40.0815902 53.3145132,41.5913086 C50.7469671,43.101027 49.4713518,46.2275753 50.2059426,49.2104522 C50.6446915,50.9590118 51.7362656,52.4502481 53.2358522,53.3497142 C56.3030632,55.2265418 60.2431428,54.1794515 62.0812335,50.9990222 Z M52.8571429,36.84375 C54.5501156,36.4843845 56.3070272,36.4843845 58,36.84375 L58,19.9715091 L42.5714286,11.65625 C42.0653263,13.2236716 41.1859224,14.6620744 40,15.8622241 L52.8571429,22.7754918 L52.8571429,36.84375 Z M1.87049277,44.1236356 C1.00807706,45.6794801 0.774961964,47.5297724 1.2226884,49.2654191 C1.67041484,51.0010659 2.76210199,52.4790958 4.25638166,53.3727217 C5.74709075,54.27282 7.51992046,54.5161209 9.18290437,54.0488314 C10.8458883,53.5815419 12.2620405,52.4421542 13.1182547,50.8825831 C14.2867868,48.7912379 14.2943519,46.2073168 13.1380873,44.1085574 C11.9818227,42.0097979 9.83834068,40.7167723 7.51871952,40.7187523 C5.18850207,40.7196127 3.03560142,42.0174316 1.87049277,44.1236356 Z M11.2173913,36.84375 L11.2173913,22.7541906 L24,15.8059148 C22.8162333,14.6134073 21.9262106,13.1976438 21.3913043,11.65625 L6,19.9555795 L6,36.84375 C7.71770257,36.4866855 9.49968874,36.4866855 11.2173913,36.84375 Z M44.4533107,50.40625 L31.9235993,57.3376938 L19.3938879,50.40625 C19.1414526,51.2737282 18.7824012,52.1094022 18.3242784,52.8957122 C17.9441941,53.536976 17.5007326,54.1417786 17,54.7017926 L31.9745331,63 L47,54.7017926 C45.8329371,53.4660749 44.9635313,51.9996339 44.4533107,50.40625 Z" id="Shape"></path>
            </g>
        </g>
    </g>
</svg>