<?xml version="1.0" encoding="UTF-8"?>
<svg width="33px" height="33px" viewBox="0 0 33 33" version="1.1" xmlns="http://www.w3.org/2000/svg" xmlns:xlink="http://www.w3.org/1999/xlink">
    <!-- Generator: Sketch 52.5 (67469) - http://www.bohemiancoding.com/sketch -->
    <title>7</title>
    <desc>Created with Sketch.</desc>
    <g id="Page-1" stroke="none" stroke-width="1" fill="none" fill-rule="evenodd">
        <g id="微课资源-课程评论" transform="translate(-1164.000000, -470.000000)" fill="#FFFFFF" fill-rule="nonzero">
            <g id="Shape-4" transform="translate(1164.000000, 470.000000)">
                <path d="M13.8401748,2.27796822 C12.9333257,3.95625331 13.49352,6.08339029 15.0950266,7.04281742 C16.6959386,8.00434657 18.7409499,7.42999773 19.6626871,5.75997338 C20.5844243,4.08994903 20.0338444,1.9566534 18.4329324,0.995124206 C17.6623505,0.523042245 16.7424842,0.393004766 15.8792527,0.634121655 C15.0160211,0.875238544 14.2815207,1.46737193 13.8401748,2.27796822 Z M32.010636,26.2963708 C32.7891045,24.9326203 32.5931853,23.191922 31.533197,22.0544309 C30.4732086,20.9169397 28.8141868,20.6670699 27.4902959,21.4455185 C26.1664049,22.2239671 25.5086658,23.8360935 25.8874391,25.3741394 C26.113669,26.2757404 26.676512,27.0446592 27.4497363,27.5084464 C29.0312669,28.4761856 31.0628705,27.9362797 32.010636,26.2963708 Z M27.2544643,18.9975586 C28.1274034,18.8122608 29.0333109,18.8122608 29.90625,18.9975586 L29.90625,10.2978094 L21.9508929,6.01025391 C21.6899339,6.81845565 21.2364912,7.56013212 20.625,8.1789593 L27.2544643,11.743613 L27.2544643,18.9975586 Z M0.964472837,22.7512496 C0.519789737,23.5534819 0.399589763,24.5075389 0.630448707,25.4024817 C0.861307651,26.2974246 1.42420884,27.0595338 2.19469679,27.5203096 C2.96334367,27.9844228 3.87745899,28.1098748 4.73493507,27.8689287 C5.59241115,27.6279825 6.32261462,27.0404858 6.76410006,26.2363319 C7.36662443,25.157982 7.37052517,23.8256477 6.77432626,22.7434749 C6.17812735,21.661302 5.07289441,20.9945857 3.87683975,20.9956066 C2.67532138,20.9960503 1.56523198,21.6652382 0.964472837,22.7512496 Z M5.78396739,18.9975586 L5.78396739,11.7326295 L12.375,8.14992479 C11.7646203,7.53503814 11.3057023,6.80503509 11.0298913,6.01025391 L3.09375,10.2895957 L3.09375,18.9975586 C3.97944039,18.8134472 4.89827701,18.8134472 5.78396739,18.9975586 Z M22.9212383,25.9907227 L16.4606059,29.5647484 L9.99997347,25.9907227 C9.86981148,26.4380161 9.6846756,26.8689105 9.44845607,27.2743516 C9.25247509,27.6050032 9.02381526,27.9168546 8.765625,28.2056118 L16.4868686,32.484375 L24.234375,28.2056118 C23.6326082,27.5684449 23.1843208,26.8123112 22.9212383,25.9907227 Z" id="Shape"></path>
            </g>
        </g>
    </g>
</svg>