<?xml version="1.0" encoding="UTF-8"?>
<svg width="64px" height="64px" viewBox="0 0 64 64" version="1.1" xmlns="http://www.w3.org/2000/svg" xmlns:xlink="http://www.w3.org/1999/xlink">
    <!-- Generator: Sketch 52.5 (67469) - http://www.bohemiancoding.com/sketch -->
    <title>8</title>
    <desc>Created with Sketch.</desc>
    <g id="Page-1" stroke="none" stroke-width="1" fill="none" fill-rule="evenodd">
        <g id="首页" transform="translate(-1375.000000, -861.000000)" fill="#3DBDB6" fill-rule="nonzero">
            <g id="Shape-5" transform="translate(1375.000000, 861.000000)">
                <path d="M32.5074028,3 C16.2065245,3 3,16.2065245 3,32.5074028 C3,48.7934755 16.2065245,62 32.5074028,62 C48.7934755,62 62,48.7934755 62,32.5074028 C62,16.2065245 48.7934755,3 32.5074028,3 Z M37,37.3596821 C37,39.371811 35.371811,41 33.3596821,41 L23.6403179,41 C21.628189,41 20,39.371811 20,37.3596821 L20,27.6403179 C20,25.628189 21.628189,24 23.6403179,24 L33.3525721,24 C35.364701,24 36.99289,25.635299 36.99289,27.6403179 L36.99289,37.3596821 L37,37.3596821 Z M47,38.2663317 C47,39.2236181 46.0978523,40 44.9897023,40 C44.5492837,40 44.1372792,39.8718593 43.79631,39.6683417 L43.7892064,39.6683417 L40.2942719,36.8869347 C39.8964744,36.7663317 40.0172344,36.0954774 40.0172344,35.718593 L40.0172344,28.5427136 C40.0172344,28.3015075 40.1237873,28.2035176 40.3013754,28.0829146 L43.7394818,25.3316583 C43.7465853,25.3467337 43.7607923,25.3467337 43.79631,25.3316583 C44.1230722,25.120603 44.5350766,25 44.9897023,25 C46.0978523,25 47,25.7763819 47,26.7336683 L47,38.2663317 Z" id="Shape"></path>
            </g>
        </g>
    </g>
</svg>