<?xml version="1.0" encoding="UTF-8"?>
<svg width="33px" height="33px" viewBox="0 0 33 33" version="1.1" xmlns="http://www.w3.org/2000/svg" xmlns:xlink="http://www.w3.org/1999/xlink">
    <!-- Generator: Sketch 52.5 (67469) - http://www.bohemiancoding.com/sketch -->
    <title>8</title>
    <desc>Created with Sketch.</desc>
    <g id="Page-1" stroke="none" stroke-width="1" fill="none" fill-rule="evenodd">
        <g id="微课资源-课程评论" transform="translate(-1382.000000, -470.000000)" fill="#FFFFFF" fill-rule="nonzero">
            <g id="Shape-5" transform="translate(1382.000000, 470.000000)">
                <path d="M16.7616295,1.546875 C8.35648918,1.546875 1.546875,8.35648918 1.546875,16.7616295 C1.546875,25.1591358 8.35648918,31.96875 16.7616295,31.96875 C25.1591358,31.96875 31.96875,25.1591358 31.96875,16.7616295 C31.96875,8.35648918 25.1591358,1.546875 16.7616295,1.546875 Z M19.078125,19.2635861 C19.078125,20.30109 18.23859,21.140625 17.2010861,21.140625 L12.1895389,21.140625 C11.152035,21.140625 10.3125,20.30109 10.3125,19.2635861 L10.3125,14.2520389 C10.3125,13.214535 11.152035,12.375 12.1895389,12.375 L17.19742,12.375 C18.2349239,12.375 19.0744589,13.2182011 19.0744589,14.2520389 L19.0744589,19.2635861 L19.078125,19.2635861 Z M24.234375,19.7310773 C24.234375,20.2246781 23.7692051,20.625 23.1978152,20.625 C22.9707244,20.625 22.7582846,20.5589274 22.5824723,20.4539887 L22.5788096,20.4539887 L20.7767339,19.0198257 C20.5716196,18.9576398 20.6338865,18.6117305 20.6338865,18.4173995 L20.6338865,14.7173367 C20.6338865,14.5929648 20.6888278,14.5424388 20.7803967,14.4802528 L22.5531703,13.0616363 C22.556833,13.0694095 22.5641586,13.0694095 22.5824723,13.0616363 C22.7509591,12.9528109 22.9633989,12.890625 23.1978152,12.890625 C23.7692051,12.890625 24.234375,13.2909469 24.234375,13.7845477 L24.234375,19.7310773 Z" id="Shape"></path>
            </g>
        </g>
    </g>
</svg>