<?xml version="1.0" encoding="UTF-8"?>
<svg width="33px" height="33px" viewBox="0 0 33 33" version="1.1" xmlns="http://www.w3.org/2000/svg" xmlns:xlink="http://www.w3.org/1999/xlink">
    <!-- Generator: Sketch 52.5 (67469) - http://www.bohemiancoding.com/sketch -->
    <title>888</title>
    <desc>Created with Sketch.</desc>
    <g id="Page-1" stroke="none" stroke-width="1" fill="none" fill-rule="evenodd">
        <g id="名师空间-" transform="translate(-1143.000000, -470.000000)" fill="#FFFFFF" fill-rule="nonzero">
            <g id="Shape-5" transform="translate(1143.000000, 470.000000)">
                <g id="tupian" transform="translate(4.000000, 5.000000)">
                    <path d="M9.38498403,11.5102041 C8.94568691,11.5102041 8.53634186,11.4251701 8.15694888,11.255102 C7.7775559,11.085034 7.44808305,10.8537415 7.16853034,10.5612245 C6.88897763,10.2687075 6.66600106,9.92857143 6.49960062,9.54081631 C6.33320019,9.1530612 6.24999997,8.74149657 6.24999997,8.30612243 C6.24999997,7.87074829 6.33320019,7.45918366 6.49960062,7.07142855 C6.66600106,6.68367343 6.88897763,6.34693874 7.16853034,6.06122446 C7.44808305,5.77551017 7.7775559,5.54761902 8.15694888,5.37755098 C8.53634186,5.20748295 8.94568691,5.12244893 9.38498403,5.12244893 C9.81096911,5.12244893 10.2136581,5.20748295 10.5930511,5.37755098 C10.9724441,5.54761902 11.301917,5.77551017 11.5814697,6.06122446 C11.8610224,6.34693874 12.083999,6.68367343 12.2503994,7.07142855 C12.4167998,7.45918366 12.5,7.87074829 12.5,8.30612243 C12.5,8.74149657 12.4167998,9.1530612 12.2503994,9.54081631 C12.083999,9.92857143 11.8610224,10.2687075 11.5814697,10.5612245 C11.301917,10.8537415 10.9724441,11.085034 10.5930511,11.255102 C10.2136581,11.4251701 9.81096911,11.5102041 9.38498403,11.5102041 Z M25,23 L0,23 L0,0 L25,0 L25,2.55102041 L25,23 Z M22.5039936,2.55102041 L2.51597444,2.55102041 L2.51597444,18.3265306 C2.75559106,17.9727891 3.02183174,17.6190476 3.31469649,17.2653061 C3.60756123,16.9115646 3.91373802,16.5918367 4.23322683,16.3061225 C4.55271565,16.0204082 4.88218849,15.7857143 5.22164537,15.6020408 C5.56110225,15.4183673 5.90388712,15.3265306 6.24999999,15.3265306 C6.66267306,15.3265306 7.01876997,15.3571429 7.31829072,15.4183674 C7.61781148,15.4795918 7.88405216,15.5578231 8.11701277,15.6530612 C8.34997338,15.7482993 8.56629394,15.8537415 8.76597443,15.9693878 C8.96565493,16.085034 9.18197549,16.1904762 9.4149361,16.2857143 C9.64789671,16.3809524 9.91080938,16.4591837 10.2036741,16.5204082 C10.4965388,16.5816327 10.8493077,16.6122449 11.2619808,16.6122449 C11.6746539,16.6122449 12.0307508,16.4863946 12.3302716,16.2346939 C12.6297923,15.9829932 12.906017,15.6666667 13.1589457,15.2857143 C13.4118743,14.9047619 13.664803,14.4965986 13.9177316,14.0612245 C14.1706602,13.6258504 14.456869,13.2176871 14.7763578,12.8367347 C15.0958467,12.4557823 15.4752396,12.1394558 15.9145367,11.8877551 C16.3538338,11.6360544 16.8863152,11.5102041 17.5119808,11.5102041 C18.0444622,11.5102041 18.5569755,11.6768708 19.0495208,12.0102041 C19.542066,12.3435374 19.9980032,12.7755102 20.4173323,13.3061225 C20.8366613,13.8367347 21.2227103,14.4285714 21.5754792,15.0816327 C21.9282481,15.7346939 22.2377529,16.3741497 22.5039936,17 L22.5039936,2.55102041 Z" id="Shape"></path>
                </g>
            </g>
        </g>
    </g>
</svg>