<?xml version="1.0" encoding="UTF-8"?>
<svg width="64px" height="64px" viewBox="0 0 64 64" version="1.1" xmlns="http://www.w3.org/2000/svg" xmlns:xlink="http://www.w3.org/1999/xlink">
    <!-- Generator: Sketch 52.5 (67469) - http://www.bohemiancoding.com/sketch -->
    <title>9</title>
    <desc>Created with Sketch.</desc>
    <g id="Page-1" stroke="none" stroke-width="1" fill="none" fill-rule="evenodd">
        <g id="首页" transform="translate(-1654.000000, -860.000000)" fill="#3DBDB6" fill-rule="nonzero">
            <g id="Group-3" transform="translate(1654.000000, 860.000000)">
                <g id="Group-34" transform="translate(2.000000, 3.000000)">
                    <path d="M25.9999312,32 C17.1766794,32 10,24.8232139 10,16 C10,7.17678608 17.1766794,0 25.9999312,0 C34.8231831,0 42,7.17678608 42,16 C42,24.8232139 34.8231831,32 25.9999312,32 Z" id="Path"></path>
                    <path d="M32.0941231,56.5960494 L7.97366742,56.5976415 C4.46804174,56.4068644 2.61806632,54.3345847 2.47624306,50.4387785 C2.44828751,49.6821708 2.93594136,48.0938653 3.14363062,47.6820627 C7.2701422,39.4925779 15.6550337,34.4042159 25.0253242,34.4042159 C26.7874298,34.4047552 28.5448758,34.580301 30.2703304,34.9281232 C30.7894854,34.1942019 31.3725972,33.5081738 31.9985288,32.8623443 C29.7614031,32.3093826 27.4240466,32 25.0238242,32 C14.7029087,32 5.46803214,37.6028499 0.921096392,46.6244306 C0.586857136,47.2909564 -0.0409835546,49.2703683 0.00210889944,50.5234209 C0.189615622,55.6487974 3.04462707,58.7370513 7.900983,59 L35,59 C33.9442349,58.3045525 32.9738364,57.4920915 32.0941231,56.5960494 Z" id="Path" stroke="#3DBDB6" stroke-width="3"></path>
                    <path d="M45.5001343,59 C37.504585,59 31,52.4956836 31,44.5001343 C31,36.504585 37.504585,30 45.5001343,30 C53.4956836,30 60,36.504585 60,44.5001343 C60,52.4956836 53.4958179,59 45.5001343,59 Z M45.6180107,53.21166 L46.2127553,52.843137 C47.2498448,52.2044532 49.9797048,49.9752076 51.5465087,48.556109 C52.1766924,47.986167 53.2109748,46.741326 53.4880544,46.2186649 C54.3341473,44.6239674 54.2919245,43.2940654 54.1208112,42.0950523 C53.7960116,39.81439 51.6286151,38.7005497 51.5352805,38.6547218 C50.7511768,38.2602669 49.9628624,38.0617541 49.195601,38.0617541 C47.4942924,38.0617541 46.2720543,39.0122908 45.5092374,39.8833554 C44.2233727,38.3749483 42.8770394,38.0172675 41.8907108,38.0172675 C40.0215638,38.0172675 38.6875113,39.2513781 38.5363983,39.3959035 C36.0795243,41.793818 36.8920494,44.7969955 37.6182577,45.9662764 C38.9955855,48.7666936 44.4198665,52.4177204 45.0342604,52.8255883 L45.6180107,53.21166 Z" id="Combined-Shape"></path>
                </g>
            </g>
        </g>
    </g>
</svg>