<?xml version="1.0" encoding="UTF-8"?>
<svg width="33px" height="33px" viewBox="0 0 33 33" version="1.1" xmlns="http://www.w3.org/2000/svg" xmlns:xlink="http://www.w3.org/1999/xlink">
    <!-- Generator: Sketch 52.5 (67469) - http://www.bohemiancoding.com/sketch -->
    <title>9</title>
    <desc>Created with Sketch.</desc>
    <g id="Page-1" stroke="none" stroke-width="1" fill="none" fill-rule="evenodd">
        <g id="微课资源-课程评论" transform="translate(-1600.000000, -470.000000)" fill="#FFFFFF" fill-rule="nonzero">
            <g id="Group-3" transform="translate(1600.000000, 470.000000)">
                <g id="Group-34" transform="translate(1.031250, 1.546875)">
                    <path d="M13.4062145,16.5 C8.85672532,16.5 5.15625,12.7994697 5.15625,8.25 C5.15625,3.70053032 8.85672532,0 13.4062145,0 C17.9557038,0 21.65625,3.70053032 21.65625,8.25 C21.65625,12.7994697 17.9557038,16.5 13.4062145,16.5 Z" id="Path"></path>
                    <path d="M16.5485322,29.182338 L4.11142226,29.1831589 C2.30383402,29.0847894 1.34994045,28.0162702 1.27681283,26.0074951 C1.26239825,25.6173693 1.51384476,24.7983993 1.62093454,24.5860636 C3.74866707,20.3633605 8.07212676,17.7396738 12.9036828,17.7396738 C13.8122685,17.7399519 14.7184516,17.8304677 15.6081391,18.0098135 C15.8758284,17.6313854 16.1764954,17.2776521 16.4992414,16.9446463 C15.3457235,16.6595254 14.140524,16.5 12.9029093,16.5 C7.58118729,16.5 2.81945407,19.3889695 0.474940327,24.040722 C0.302598211,24.3843994 -0.0211321453,25.4050336 0.00108740127,26.0511389 C0.097770555,28.6939112 1.56988583,30.2862921 4.07394436,30.421875 L18.046875,30.421875 C17.5024961,30.0632849 17.0021344,29.6443597 16.5485322,29.182338 Z" id="Path" stroke="#FFFFFF" stroke-width="3"></path>
                    <path d="M23.4610068,30.421875 C19.3383017,30.421875 15.984375,27.0680868 15.984375,22.9453818 C15.984375,18.8226767 19.3383017,15.46875 23.4610068,15.46875 C27.5837118,15.46875 30.9375,18.8226767 30.9375,22.9453818 C30.9375,27.0680868 27.5837811,30.421875 23.4610068,30.421875 Z M23.5217868,27.4372622 L23.8284519,27.2472425 C24.3632012,26.9179212 25.7707853,25.7684664 26.5786686,25.0367437 C26.903607,24.7428673 27.4369089,24.1009962 27.5797781,23.8314991 C28.0160447,23.0092332 27.9942736,22.3235025 27.9060433,21.7052613 C27.7385685,20.5292949 26.6210046,19.9549709 26.572879,19.9313409 C26.1685755,19.7279501 25.762101,19.625592 25.3664818,19.625592 C24.4892445,19.625592 23.859028,20.1157125 23.4657005,20.5648551 C22.8026766,19.7870827 22.1084735,19.6026536 21.5998978,19.6026536 C20.6361188,19.6026536 19.948248,20.2389918 19.8703304,20.3135127 C18.6035047,21.5499374 19.022463,23.0984508 19.3969141,23.7013613 C20.1070988,25.1453264 22.9039937,27.0278871 23.2207905,27.238194 L23.5217868,27.4372622 Z" id="Combined-Shape"></path>
                </g>
            </g>
        </g>
    </g>
</svg>