<?xml version="1.0" encoding="UTF-8"?>
<svg width="23px" height="23px" viewBox="0 0 23 23" version="1.1" xmlns="http://www.w3.org/2000/svg" xmlns:xlink="http://www.w3.org/1999/xlink">
    <!-- Generator: Sketch 52.5 (67469) - http://www.bohemiancoding.com/sketch -->
    <title>999</title>
    <desc>Created with Sketch.</desc>
    <g id="Page-1" stroke="none" stroke-width="1" fill="none" fill-rule="evenodd">
        <g id="名师空间-文章列表-个人视角" transform="translate(-897.000000, -669.000000)" fill="#FFFFFF" fill-rule="nonzero">
            <g id="Shape-3-Copy" transform="translate(897.000000, 669.000000)">
                <path d="M19.3461538,4.96153846 L17.3846154,4.96153846 L17.3846154,3.65384615 C17.3846154,3.29273918 17.0918762,3 16.7307692,3 L4.30769231,3 C3.58547837,3 3,3.58547837 3,4.30769231 L3,18.6923077 C3,19.4145421 3.58547837,20 4.30769231,20 L19.3461538,20 C19.7072608,20 20,19.7072608 20,19.3461538 L20,5.61538462 C20,5.25427764 19.7072608,4.96153846 19.3461538,4.96153846 Z M3.70833333,4.41666667 C3.70833333,4.02546745 4.00168239,3.70833333 4.36354167,3.70833333 L16.4848958,3.70833333 C16.6658357,3.70833333 16.8125,3.86691146 16.8125,4.0625 L16.8125,5.125 L4.36354167,5.125 C4.00168239,5.125 3.70833333,4.80786589 3.70833333,4.41666667 Z M11.1655093,16.8125 L5.81365741,16.8125 C5.6289349,16.8125 5.47916667,16.653944 5.47916667,16.4583333 C5.47916667,16.2627227 5.6289349,16.1041667 5.81365741,16.1041667 L11.1655093,16.1041667 C11.3502318,16.1041667 11.5,16.2627227 11.5,16.4583333 C11.5,16.653944 11.3502318,16.8125 11.1655093,16.8125 Z M13.6522436,13.9791667 L5.80608974,13.9791667 C5.62554647,13.9791667 5.47916667,13.8206107 5.47916667,13.625 C5.47916667,13.4293893 5.62554647,13.2708333 5.80608974,13.2708333 L13.6522436,13.2708333 C13.8328073,13.2708333 13.9791667,13.4293893 13.9791667,13.625 C13.9791667,13.8206107 13.8328073,13.9791667 13.6522436,13.9791667 Z M5.47916667,11.1458333 C5.47916667,10.9502448 5.6289349,10.7916667 5.81365741,10.7916667 L11.1655093,10.7916667 C11.3502318,10.7916667 11.5,10.9502448 11.5,11.1458333 C11.5,11.3414219 11.3502318,11.5 11.1655093,11.5 L5.81365741,11.5 C5.6289349,11.5 5.47916667,11.3414219 5.47916667,11.1458333 Z M17.1961806,9.02083333 L6.15798611,9.02083333 C5.97869661,9.02083333 5.83333333,8.86225521 5.83333333,8.66666667 C5.83333333,8.47107813 5.97869661,8.3125 6.15798611,8.3125 L17.1961806,8.3125 C17.3754903,8.3125 17.5208333,8.47107813 17.5208333,8.66666667 C17.5208333,8.86225521 17.3754903,9.02083333 17.1961806,9.02083333 Z" id="Shape"></path>
            </g>
        </g>
    </g>
</svg>