<?xml version="1.0" encoding="UTF-8"?>
<svg width="33px" height="33px" viewBox="0 0 33 33" version="1.1" xmlns="http://www.w3.org/2000/svg" xmlns:xlink="http://www.w3.org/1999/xlink">
    <!-- Generator: Sketch 52.5 (67469) - http://www.bohemiancoding.com/sketch -->
    <title>eeee</title>
    <desc>Created with Sketch.</desc>
    <g id="Page-1" stroke="none" stroke-width="1" fill="none" fill-rule="evenodd">
        <g id="微课资源-课程设计" transform="translate(-1399.000000, -1623.000000)" fill="#FFFFFF" fill-rule="nonzero">
            <path d="M1412.50061,1623 C1414.3292,1623 1416.07715,1623.35739 1417.74448,1624.07217 C1419.4118,1624.78696 1420.84737,1625.74587 1422.05117,1626.94893 C1423.25498,1628.15198 1424.2139,1629.58755 1424.92793,1631.25563 C1425.64196,1632.9237 1425.99935,1634.67166 1426.0001,1636.49949 C1426.0001,1638.07006 1425.74434,1639.57388 1425.23282,1641.01094 C1424.72129,1642.44801 1423.99264,1643.75269 1423.04684,1644.925 L1431.56686,1653.43376 C1431.85562,1653.72252 1432,1654.07804 1432,1654.50031 C1432,1654.93008 1431.85749,1655.28747 1431.57248,1655.57248 C1431.28747,1655.85749 1430.93008,1656 1430.50031,1656 C1430.07804,1656 1429.72252,1655.85562 1429.43376,1655.56686 L1420.925,1647.04684 C1419.75269,1647.99189 1418.44801,1648.72054 1417.01094,1649.23282 C1415.57388,1649.74509 1414.07006,1650.00085 1412.49949,1650.0001 C1410.67091,1650.0001 1408.92295,1649.64271 1407.25563,1648.92793 C1405.5883,1648.21315 1404.15274,1647.25423 1402.94893,1646.05117 C1401.74513,1644.84812 1400.78621,1643.41255 1400.07217,1641.74448 C1399.35814,1640.0764 1399.00075,1638.32845 1399,1636.50061 C1398.99925,1634.67278 1399.35664,1632.92483 1400.07217,1631.25675 C1400.78771,1629.58867 1401.74663,1628.15311 1402.94893,1626.95005 C1404.15124,1625.747 1405.5868,1624.78808 1407.25563,1624.0733 C1408.92445,1623.35852 1410.67241,1623.00113 1412.49949,1623.00113 L1412.50061,1623 Z M1412.50061,1626.00051 C1411.07855,1626.00051 1409.71911,1626.27802 1408.4223,1626.83305 C1407.1255,1627.38807 1406.00832,1628.13436 1405.07078,1629.0719 C1404.13323,1630.00944 1403.38695,1631.12662 1402.83193,1632.42343 C1402.2769,1633.72024 1401.99939,1635.07967 1401.99939,1636.50174 C1401.99939,1637.9238 1402.2769,1639.28324 1402.83193,1640.58005 C1403.38695,1641.87686 1404.13323,1642.99403 1405.07078,1643.93158 C1406.00832,1644.86912 1407.1255,1645.6154 1408.4223,1646.17043 C1409.71911,1646.72545 1411.07855,1647.00297 1412.50061,1647.00297 C1413.92268,1647.00297 1415.28212,1646.72545 1416.57892,1646.17043 C1417.87573,1645.6154 1418.99291,1644.86912 1419.93045,1643.93158 C1420.86799,1642.99403 1421.61428,1641.87686 1422.1693,1640.58005 C1422.72433,1639.28324 1423.00184,1637.9238 1423.00184,1636.50174 C1423.00184,1635.07967 1422.72433,1633.72024 1422.1693,1632.42343 C1421.61428,1631.12662 1420.86799,1630.00944 1419.93045,1629.0719 C1418.99291,1628.13436 1417.87573,1627.38807 1416.57892,1626.83305 C1415.28212,1626.27802 1413.92268,1626.00051 1412.50061,1626.00051 Z M1412.50061,1630.50072 C1412.91463,1630.50072 1413.26827,1630.64735 1413.56154,1630.94061 C1413.8548,1631.23387 1414.00143,1631.58752 1414.00143,1632.00153 L1414.00143,1635.00205 L1417.00194,1635.00205 C1417.41596,1635.00205 1417.7696,1635.14868 1418.06287,1635.44194 C1418.35613,1635.7352 1418.50276,1636.08884 1418.50276,1636.50286 C1418.50276,1636.91688 1418.35613,1637.27052 1418.06287,1637.56379 C1417.7696,1637.85705 1417.41596,1638.00368 1417.00194,1638.00368 L1414.00143,1638.00368 L1414.00143,1641.00419 C1414.00143,1641.41821 1413.8548,1641.77185 1413.56154,1642.06512 C1413.26827,1642.35838 1412.91463,1642.50501 1412.50061,1642.50501 C1412.0866,1642.50501 1411.73295,1642.35838 1411.43969,1642.06512 C1411.14643,1641.77185 1410.9998,1641.41821 1410.9998,1641.00419 L1410.9998,1638.00368 L1407.99928,1638.00368 C1407.58527,1638.00368 1407.23163,1637.85705 1406.93836,1637.56379 C1406.6451,1637.27052 1406.49847,1636.91688 1406.49847,1636.50286 C1406.49847,1636.08884 1406.6451,1635.7352 1406.93836,1635.44194 C1407.23163,1635.14868 1407.58527,1635.00205 1407.99928,1635.00205 L1410.9998,1635.00205 L1410.9998,1632.00153 C1410.9998,1631.58752 1411.14643,1631.23387 1411.43969,1630.94061 C1411.73295,1630.64735 1412.0866,1630.50072 1412.50061,1630.50072 Z" id="eeee"></path>
        </g>
    </g>
</svg>