<svg xmlns="http://www.w3.org/2000/svg" width="156" height="156" viewBox="0 0 156 156">
  <path fill="#B3B3B3" d="M134.727217,70.9090722 L120.545361,70.9090722 L120.545361,42.545361 C120.545361,19.0480213 101.49734,0 78,0 C54.5026602,0 35.454639,19.0480213 35.454639,42.545361 L35.454639,70.9090722 L21.2725776,70.9090722 C9.51938128,70.9090722 0,80.4286592 0,92.1818556 L0,134.727422 C0,146.480619 9.51958703,156 21.2725776,156 L134.727217,156 C146.480413,156 156,146.480413 156,134.727422 L156,92.1818556 C156,80.4286592 146.480413,70.9090722 134.727217,70.9090722 Z M49.6362888,42.545361 C49.6362888,26.8817023 62.3359298,14.1818556 77.9997943,14.1818556 C93.6636587,14.1818556 106.3633,26.8817023 106.3633,42.545361 L106.3633,70.9090722 L49.6362888,70.9090722 L49.6362888,42.545361 Z M141.818144,134.727217 C141.818144,138.64488 138.64488,141.818144 134.727217,141.818144 L21.2725776,141.818144 C17.3549141,141.818144 14.1816498,138.64488 14.1816498,134.727217 L14.1816498,92.1818556 C14.1816498,88.2639863 17.3549141,85.090722 21.2725776,85.090722 L134.727217,85.090722 C138.64488,85.090722 141.818144,88.2639863 141.818144,92.1818556 L141.818144,134.727217 Z"/>
</svg>
