<?xml version="1.0" encoding="UTF-8"?>
<svg width="33px" height="33px" viewBox="0 0 33 33" version="1.1" xmlns="http://www.w3.org/2000/svg" xmlns:xlink="http://www.w3.org/1999/xlink">
    <!-- Generator: Sketch 52.5 (67469) - http://www.bohemiancoding.com/sketch -->
    <title>Shapew</title>
    <desc>Created with Sketch.</desc>
    <g id="Page-1" stroke="none" stroke-width="1" fill="none" fill-rule="evenodd">
        <g id="微课资源-课程设计" transform="translate(-1461.000000, -1623.000000)" fill="#FFFFFF" fill-rule="nonzero">
            <path d="M1474.50061,1623 C1476.3292,1623 1478.07715,1623.35739 1479.74448,1624.07217 C1481.4118,1624.78696 1482.84737,1625.74587 1484.05117,1626.94893 C1485.25498,1628.15198 1486.2139,1629.58755 1486.92793,1631.25563 C1487.64196,1632.9237 1487.99935,1634.67166 1488.0001,1636.49949 C1488.0001,1638.07006 1487.74434,1639.57388 1487.23282,1641.01094 C1486.72129,1642.44801 1485.99264,1643.75269 1485.04684,1644.925 L1493.56686,1653.43376 C1493.85562,1653.72252 1494,1654.07804 1494,1654.50031 C1494,1654.93008 1493.85749,1655.28747 1493.57248,1655.57248 C1493.28747,1655.85749 1492.93008,1656 1492.50031,1656 C1492.07804,1656 1491.72252,1655.85562 1491.43376,1655.56686 L1482.925,1647.04684 C1481.75269,1647.99189 1480.44801,1648.72054 1479.01094,1649.23282 C1477.57388,1649.74509 1476.07006,1650.00085 1474.49949,1650.0001 C1472.67091,1650.0001 1470.92295,1649.64271 1469.25563,1648.92793 C1467.5883,1648.21315 1466.15274,1647.25423 1464.94893,1646.05117 C1463.74513,1644.84812 1462.78621,1643.41255 1462.07217,1641.74448 C1461.35814,1640.0764 1461.00075,1638.32845 1461,1636.50061 C1460.99925,1634.67278 1461.35664,1632.92483 1462.07217,1631.25675 C1462.78771,1629.58867 1463.74663,1628.15311 1464.94893,1626.95005 C1466.15124,1625.747 1467.5868,1624.78808 1469.25563,1624.0733 C1470.92445,1623.35852 1472.67241,1623.00113 1474.49949,1623.00113 L1474.50061,1623 Z M1474.50061,1626.00051 C1473.07855,1626.00051 1471.71911,1626.27802 1470.4223,1626.83305 C1469.1255,1627.38807 1468.00832,1628.13436 1467.07078,1629.0719 C1466.13323,1630.00944 1465.38695,1631.12662 1464.83193,1632.42343 C1464.2769,1633.72024 1463.99939,1635.07967 1463.99939,1636.50174 C1463.99939,1637.9238 1464.2769,1639.28324 1464.83193,1640.58005 C1465.38695,1641.87686 1466.13323,1642.99403 1467.07078,1643.93158 C1468.00832,1644.86912 1469.1255,1645.6154 1470.4223,1646.17043 C1471.71911,1646.72545 1473.07855,1647.00297 1474.50061,1647.00297 C1475.92268,1647.00297 1477.28212,1646.72545 1478.57892,1646.17043 C1479.87573,1645.6154 1480.99291,1644.86912 1481.93045,1643.93158 C1482.86799,1642.99403 1483.61428,1641.87686 1484.1693,1640.58005 C1484.72433,1639.28324 1485.00184,1637.9238 1485.00184,1636.50174 C1485.00184,1635.07967 1484.72433,1633.72024 1484.1693,1632.42343 C1483.61428,1631.12662 1482.86799,1630.00944 1481.93045,1629.0719 C1480.99291,1628.13436 1479.87573,1627.38807 1478.57892,1626.83305 C1477.28212,1626.27802 1475.92268,1626.00051 1474.50061,1626.00051 Z M1470.00041,1635.00092 L1479.00082,1635.00092 C1479.41484,1635.00092 1479.76848,1635.14755 1480.06174,1635.44082 C1480.35501,1635.73408 1480.50164,1636.08772 1480.50164,1636.50174 C1480.50164,1636.91576 1480.35501,1637.2694 1480.06174,1637.56266 C1479.76848,1637.85593 1479.41484,1638.00256 1479.00082,1638.00256 L1470.00041,1638.00256 C1469.58639,1638.00256 1469.23275,1637.85593 1468.93949,1637.56266 C1468.64622,1637.2694 1468.49959,1636.91576 1468.49959,1636.50174 C1468.49959,1636.08772 1468.64622,1635.73408 1468.93949,1635.44082 C1469.23275,1635.14755 1469.58639,1635.00092 1470.00041,1635.00092 Z" id="Shapew"></path>
        </g>
    </g>
</svg>