<?xml version="1.0" encoding="UTF-8"?>
<svg width="22px" height="22px" viewBox="0 0 22 22" version="1.1" xmlns="http://www.w3.org/2000/svg" xmlns:xlink="http://www.w3.org/1999/xlink">
    <!-- Generator: Sketch 52.5 (67469) - http://www.bohemiancoding.com/sketch -->
    <title>Shape-22</title>
    <desc>Created with Sketch.</desc>
    <g id="Page-1" stroke="none" stroke-width="1" fill="none" fill-rule="evenodd">
        <g id="微课资源-课程评论" transform="translate(-546.000000, -1838.000000)" fill="#040000" fill-rule="nonzero">
            <g id="zan" transform="translate(546.000000, 1838.000000)">
                <path d="M4.52741962,8.81588524 L1.47259631,8.81588524 C1.06068768,8.81588559 0.667607391,8.98809983 0.38875668,9.29073129 C0.109905969,9.59336275 -0.0292228282,9.99874506 0.00513707739,10.4084913 L0.863171725,20.6522681 C0.927030111,21.4139785 1.564902,21.999807 2.33063096,21.9999986 L4.52741962,21.9999986 C4.93406488,21.9999986 5.263716,21.6709312 5.263716,21.265006 L5.263716,9.5512439 C5.26371605,9.14525943 4.93412419,8.81608732 4.52741962,8.81588524 Z M20.5268321,8.81588524 L13.9364661,8.81588524 C16.2040243,0.429355754 12.3601024,0 12.3601024,0 C10.7291033,0 11.0671836,1.28916537 10.944712,1.50329419 C10.944712,4.61603191 8.4399109,7.21559252 7.22326177,8.29465541 C6.91225971,8.57251494 6.73516968,8.96989562 6.73667546,9.38652941 L6.73667546,21.265006 C6.73667546,21.6709357 7.0663221,21.9999986 7.47297186,21.9999986 L16.0819193,21.9999986 C17.201422,22.001089 18.2244705,21.3676581 18.7209259,20.3660309 C19.3912196,19.0120779 20.2122194,17.046485 20.7354738,15.431917 C21.2418609,13.8700577 21.7020462,11.9326493 21.9719238,10.5702775 C22.0575785,10.1387661 21.9449856,9.69164834 21.6651028,9.35186074 C21.38522,9.01207313 20.9675131,8.81538823 20.5268321,8.81588524 Z" id="Shape-22"></path>
            </g>
        </g>
    </g>
</svg>